<?xml version="1.0" standalone="no"?>
<!DOCTYPE svg PUBLIC "-//W3C//DTD SVG 20010904//EN"
 "http://www.w3.org/TR/2001/REC-SVG-20010904/DTD/svg10.dtd">
<svg version="1.0" xmlns="http://www.w3.org/2000/svg"
 width="64.000000pt" height="64.000000pt" viewBox="0 0 64.000000 64.000000"
 preserveAspectRatio="xMidYMid meet">
<metadata>
Created by potrace 1.14, written by Peter Selinger 2001-2017
</metadata>
<g transform="translate(0.000000,64.000000) scale(0.100000,-0.100000)"
fill="#000000" stroke="none">
<path d="M75 570 c-2 -3 21 -31 52 -63 l55 -57 111 1 c103 1 113 -1 129 -21
23 -28 23 -35 -2 -60 -16 -16 -33 -20 -81 -20 l-62 0 61 -62 60 -61 46 17 c93
36 137 147 92 235 -21 40 -76 81 -118 87 -45 7 -339 10 -343 4z"/>
<path d="M157 268 c45 -46 107 -109 137 -141 l55 -58 75 3 74 3 -132 138 -132
137 -79 0 -80 0 82 -82z"/>
</g>
</svg>
