<svg 
    id="behance"
    class="SVGlogo"
    xmlns="http://www.w3.org/2000/svg" 
    viewBox="0 0 93.09 93.09"
    role="img"
    aria-describedby="behance--title">
    <title id="behance--title">Behance logo</title>

    <path d="M36.39,49.86c-1.23-.93-2.87-1.4-4.89-1.4h-10.19v11.73h10.01c.93,0,1.8-.08,2.63-.27,.84-.18,1.58-.47,2.21-.9,.63-.41,1.15-.98,1.52-1.7,.38-.71,.56-1.64,.56-2.76,0-2.2-.62-3.75-1.85-4.7Z"/>
    <path d="M65.9,42.13c-1.35,0-2.47,.23-3.37,.69-.88,.46-1.6,1.03-2.14,1.7-.55,.68-.92,1.4-1.14,2.17-.22,.75-.35,1.43-.39,2.03h13.78c-.2-2.16-.94-3.76-1.95-4.88-1.01-1.11-2.71-1.72-4.79-1.72Z"/>
    <path d="M34.92,40.87c1.08-.79,1.6-2.09,1.6-3.87,0-.99-.17-1.81-.52-2.45-.36-.64-.84-1.13-1.44-1.48-.6-.36-1.28-.61-2.06-.75-.77-.15-1.58-.21-2.41-.21h-8.77v9.95h9.49c1.66,0,3.04-.39,4.13-1.19Z"/>
    <path d="M0,0V93.09H93.09V0H0ZM57.13,27.71h17.26v4.2h-17.26v-4.2Zm-10.78,32.95c-.83,1.58-1.97,2.87-3.37,3.86-1.41,1-3.03,1.73-4.85,2.21-1.79,.48-3.66,.72-5.57,.72H11.93V24.85h20.08c2.04,0,3.88,.18,5.56,.54,1.67,.35,3.1,.95,4.3,1.76,1.19,.81,2.11,1.89,2.78,3.25,.65,1.34,.97,3.01,.97,5,0,2.14-.49,3.93-1.46,5.37-.98,1.43-2.42,2.6-4.35,3.51,2.62,.75,4.56,2.08,5.85,3.97,1.29,1.9,1.93,4.17,1.93,6.84,0,2.16-.41,4.02-1.24,5.58Zm34.76-6.6h-22.25c0,2.44,.82,4.75,2.1,5.98,1.27,1.24,3.1,1.86,5.48,1.86,1.71,0,3.19-.43,4.42-1.29,1.23-.86,1.97-1.78,2.26-2.73h7.46c-1.2,3.71-3.02,6.36-5.5,7.96-2.45,1.6-5.44,2.4-8.93,2.4-2.43,0-4.61-.39-6.58-1.17-1.96-.78-3.6-1.88-4.98-3.32-1.34-1.44-2.39-3.14-3.13-5.14-.74-1.99-1.11-4.19-1.11-6.57s.39-4.46,1.14-6.45c.77-2,1.83-3.72,3.23-5.17,1.4-1.45,3.06-2.6,5-3.44,1.93-.83,4.07-1.25,6.43-1.25,2.61,0,4.89,.5,6.85,1.52,1.95,1.01,3.55,2.38,4.81,4.09,1.26,1.71,2.15,3.66,2.71,5.85,.55,2.19,.75,4.47,.59,6.87Z"/>
</svg>