<svg 
    class="PDF417"
    xmlns="http://www.w3.org/2000/svg"
    viewBox="0 0 318.77 60.13"
    role="img"
    aria-describedby="PDF417--title PDF417--desc">
    <title id="PDF417--title">richardfxr</title>
    <desc id="PDF417--desc">PDF417 code that encodes the text “richardfxr.”</desc>

    <path d="M79.74,12.11c-2.56,0-5.13,0-7.79,0,0,4.02,0,7.92,0,11.92,.79,0,1.55,0,2.47,0,0,4,0,7.9,0,11.96,2.69,0,5.24,0,7.88,0,0,4.12,0,8.08,0,12.2h2.57c0,4.06,0,7.96,0,11.93-1.68,0-3.31,0-5.11,0,0-3.9,0-7.8,0-11.81-2.66,0-5.17,0-7.83,0,0-4.1,0-8.1,0-12.2-1.92,0-3.68,0-5.53,0,0,3.98,0,7.94,0,12.06,.85,0,1.75,0,2.73,0,0,4.06,0,7.96,0,11.94-2.63,0-5.23,0-7.99,0,0-3.87,0-7.77,0-11.77-.95,0-1.74,0-2.64,0,0,3.89,0,7.76,0,11.73-.9,0-1.69,0-2.64,0,0-11.93,0-23.89,0-35.93h-2.59c0,11.93,0,23.89,0,35.94h-8.14c0-20.01,0-39.98,0-60.05,3.51,0,6.98,0,10.64,0,0,3.96,0,7.95,0,12.01,.95,0,1.71,0,2.65,0,0-3.98,0-7.97,0-12.04,.94,0,1.69,0,2.55,0,0,7.97,0,15.9,0,23.99h-2.43c0,4.06,0,7.96,0,11.93,1.68,0,3.31,0,5.08,0,0-11.92,0-23.83,0-35.87,.92,0,1.71,0,2.64,0,0,7.92,0,15.86,0,23.9,1.02,0,1.91,0,2.94,0,0-7.94,0-15.88,0-23.92,3.54,0,6.96,0,10.49,0,0,4.07,0,8.08,0,12.1l.04-.04Zm-31.66,12.03c0,8.1,0,16.07,0,24.05h2.44c0-8.04,0-16.01,0-24.05-.83,0-1.59,0-2.44,0Z"/>
    <path d="M0,60.12c0-20.06,0-40.02,0-60.08,7.03,0,13.99,0,21.07,0,0,20.01,0,40,0,60.08-6.98,0-13.95,0-21.07,0Z"/>
    <path d="M289.65,60.13c-6.22,0-12.32,0-18.49,0,0-20.04,0-40,0-60.07,6.16,0,12.28,0,18.49,0,0,20.03,0,39.99,0,60.07Z"/>
    <path d="M151.39,24.1c0-7.99,0-15.99,0-24.06,1.85,0,3.57,0,5.43,0,0,7.95,0,15.88,0,23.93h2.64c0-7.91,0-15.84,0-23.9,1.79,0,3.45,0,5.26,0,0,7.95,0,15.88,0,23.98,1.8,0,3.47,0,5.21,0,0,12.08,0,24,0,36.03-4.26,0-8.54,0-12.93,0,0-3.87,0-7.76,0-11.77,1.65,0,3.28,0,5.03,0v-12.31c-2.67,0-5.36,0-8.06,0l.04,.04c0-3.96,0-7.92,0-11.98-1.02,0-1.84,0-2.66,0l.04,.04Z"/>
    <path d="M252.46,12.15c0-4.01,0-8.03,0-12.12,4.47,0,8.82,0,13.27,0,0,3.98,0,7.93,0,12.05h-2.43c0,4.06,0,7.96,0,11.97,1.68,0,3.31,0,5.05,0,0,8.08,0,16.06,0,24.15-2.61,0-5.21,0-7.97,0,0,4,0,7.91,0,11.9-1.82,0-3.49,0-5.32,0,0-8,0-15.97,0-24.05h-2.6c0-4.06,0-8.02,0-11.98l-.04,.04h2.55c0-4.1,0-7.99,0-11.98-.91,0-1.73,0-2.55,0l.04,.04Z"/>
    <path d="M233.78,48.23c0,3.92,0,7.84,0,11.86-2.6,0-5.14,0-7.76,0,0-19.99,0-39.95,0-60.03,4.28,0,8.56,0,12.98,0,0,3.97,0,7.92,0,12.09,1.08,0,2.03,0,2.98,0l-.04-.04c0,3.99,0,7.99,0,11.98l.04-.04c-.95,0-1.9,0-2.95,0,0,4.14,0,8.06,0,11.98l.04-.04c-.89,0-1.77,0-2.66,0l.04,.04c0-3.95,0-7.91,0-11.86h-2.66c0,4.02,0,7.94,0,11.86l.04-.04c-.85,0-1.7,0-2.55,0,0,4.2,0,8.19,0,12.27h2.55s-.04-.04-.04-.04Z"/>
    <path d="M100.96,12.12c0,3.92,0,7.84,0,11.98,1.83,0,3.56,0,5.28,0l-.04-.04c0,12,0,24.01,0,36.07h-2.55c0-7.98,0-15.95,0-24.09-2.74,0-5.33,0-7.93,0,0-3.95,0-7.9,0-11.87h-2.51c0,3.99,0,7.88,0,11.83,.91,0,1.73,0,2.55,0,0,4.02,0,8.04,0,12.22,1.73,0,3.4,0,5.14,0,0,4.02,0,7.89,0,11.86-3.39,0-6.81,0-10.31,0,0-19.95,0-39.92,0-60.01,2.51,0,5.05,0,7.72,0,0,3.96,0,7.92,0,12.09,.98,0,1.83,0,2.69,0l-.04-.04Z"/>
    <path d="M196.54,48.23c0,3.92,0,7.85,0,11.86-3.53,0-6.94,0-10.43,0,0-3.89,0-7.76,0-11.78h2.57c0-8.19,0-16.23,0-24.26l-.04,.04c.82,0,1.64,0,2.58,0,0-8.04,0-15.97,0-24.03,1.78,0,3.44,0,5.2,0,0,3.95,0,7.9,0,12.01h-2.44c0,4.05,0,7.95,0,11.95,1.78,0,3.5,0,5.34,0,0,8.08,0,16.05,0,24.24-.92,0-1.87,0-2.82,0,0-4.05,0-8.1,0-12.16-1.82,0-3.48,0-5.12,0,0,4.08,0,8.07,0,12.12,1.79,0,3.48,0,5.17,0Z"/>
    <path d="M143.53,36c-.82,0-1.64,0-2.61,0,0,4.1,0,8.1,0,12.2-.91,0-1.66,0-2.58,0,0,4,0,7.9,0,11.9h-2.61c0-19.99,0-39.99,0-60.06,1.69,0,3.32,0,5.08,0,0,3.98,0,7.93,0,12.04,1.79,0,3.46,0,5.29,0,0,4.11,0,8.07,0,12.03l.04-.04h-2.66v11.98s.04-.04,.04-.04Z"/>
    <path d="M188.68,24.06c-1.69,0-3.38,0-5.23,0,0,12.06,0,24.01,0,36.05-.94,0-1.73,0-2.59,0,0-20.03,0-40,0-60.06,2.54,0,5.04,0,7.78,0,0,8,0,16.03,0,24.05,0,0,.04-.04,.04-.04Z"/>
    <path d="M244.55,24.06c0,3.92,0,7.84,0,11.92h5.18c0,8.13,0,16.1,0,24.14-2.55,0-5.06,0-7.72,0,0-3.88,0-7.78,0-11.89-1.1,0-2.05,0-3,0l.04,.04c0-4.09,0-8.18,0-12.27l-.04,.04c.95,0,1.9,0,2.95,0,0-4.14,0-8.06,0-11.98l-.04,.04c.89,0,1.77,0,2.66,0l-.04-.04Z"/>
    <path d="M153.97,36c0,4.02,0,8.04,0,12.22-2.61,0-5.15,0-7.8,0,0,4.02,0,7.89,0,11.86-.9,0-1.69,0-2.65,0,0-8.01,0-16.05,0-24.08,0,0-.04,.04-.04,.04h2.66v-11.98s-.04,.04-.04,.04c1.76,0,3.53,0,5.29,0,0,0-.04-.04-.04-.04,0,3.96,0,7.92,0,11.98h2.66s-.04-.04-.04-.04Z"/>
    <path d="M209.9,24.1h2.61c0,8.04,0,16.02,0,24.1,1.78,0,3.41,0,5.16,0,0,4,0,7.9,0,11.9-3.39,0-6.8,0-10.29,0,0-3.89,0-7.76,0-11.78h2.57c0-8.19,0-16.23,0-24.26l-.04,.04Z"/>
    <path d="M23.9,0h2.71c0,20.05,0,40.06,0,60.12h-2.71c0-20.02,0-40.02,0-60.12Z"/>
    <path d="M305.66,60.13h-2.75c0-20.03,0-40,0-60.07,.9,0,1.78,0,2.75,0,0,20.01,0,39.97,0,60.07Z"/>
    <path d="M31.87,60.13h-2.46c0-20.03,0-40,0-60.08,.8,0,1.59,0,2.46,0,0,20.01,0,39.97,0,60.08Z"/>
    <path d="M34.67,0h2.42c0,20.05,0,40.06,0,60.13-.8,0-1.56,0-2.42,0,0-20.01,0-40.02,0-60.13Z"/>
    <path d="M318.77,60.13c-.87,0-1.63,0-2.47,0,0-20.03,0-40,0-60.08,.81,0,1.6,0,2.47,0,0,20.01,0,39.98,0,60.08Z"/>
    <path d="M127.47,36.04c1.69,0,3.38,0,5.17,0,0,4.06,0,8.05,0,12.15-.8,.04-1.6,.08-2.49,.12,0,3.94,0,7.81,0,11.77-2.64,0-5.17,0-7.88,0,0-3.94,0-7.9,0-11.85l-.04,.04c1.73,0,3.45,0,5.28,0,0-4.23,0-8.25,0-12.27l-.04,.04Z"/>
    <path d="M292.45,0h2.42c0,20.05,0,40.06,0,60.13h-2.42c0-20.01,0-40.01,0-60.13Z"/>
    <path d="M310.9,60.13c-.87,0-1.63,0-2.46,0,0-20.03,0-40,0-60.08h2.46c0,20.01,0,39.98,0,60.08Z"/>
    <path d="M117.1,.02c2.56,0,5.07,0,7.66,0,0,4,0,7.95,0,12.06-1.64,0-3.31,0-5.13,0,0,4.06,0,7.96,0,11.92-.92,0-1.67,0-2.53,0,0-7.97,0-15.94,0-23.98Z"/>
    <path d="M108.78,24.16c.82-.04,1.64-.09,2.62-.14,0-3.89,0-7.78,0-11.78,1.04,0,1.93,0,2.9,0,0,7.88,0,15.75,0,23.7-1.77,0-3.49,0-5.48,0,0-3.93,0-7.88,0-11.83,0,0-.04,.05-.04,.05Z"/>
    <path d="M175.23,36c0,4.02,0,8.03,0,12.21,.99,0,1.89,0,2.86,0,0,4.05,0,7.95,0,11.91-1.79,0-3.52,0-5.35,0,0-7.97,0-15.94,0-24.08,.83,0,1.68,0,2.53,0l-.04-.04Z"/>
    <path d="M108.91,60.11c0-3.93,0-7.79,0-11.75,2.63,0,5.27,0,8,0,0,3.88,0,7.78,0,11.75-2.63,0-5.23,0-8,0Z"/>
    <path d="M79.69,12.15c2.56,0,5.12,0,7.79,0,0,3.95,0,7.84,0,11.83-2.52,0-5.05,0-7.74,0,0-3.97,0-7.92,0-11.87,0,0-.04,.04-.04,.04Z"/>
    <path d="M175.27,36.04c0-7.89,0-15.79,0-23.8,.93,0,1.81,0,2.8,0,0,7.84,0,15.71,0,23.75-.94,0-1.89,0-2.84,0,0,0,.04,.04,.04,.04Z"/>
    <path d="M220.71,12.11c-1.78,0-3.57,0-5.45,0,0-4.04,0-8.02,0-12.08,1.76,0,3.48,0,5.41,0,0,4.04,0,8.08,0,12.12l.04-.04Z"/>
    <path d="M167.48,.02c1.71,0,3.34,0,5.06,0,0,4.01,0,7.95,0,12.01-1.64,0-3.3,0-5.06,0,0-3.94,0-7.89,0-12.01Z"/>
    <path d="M106.24,24.1c0-7.98,0-15.96,0-24.05h2.54c0,8.06,0,16.08,0,24.1,0,0,.04-.05,.04-.04-.87-.02-1.75-.03-2.62-.05,0,0,.04,.04,.04,.04Z"/>
    <path d="M209.94,24.06c-1.69,0-3.38,0-5.24,0,0-4.03,0-7.98,0-11.94l-.04,.04c1.69,0,3.38,0,5.24,0,0,4.03,0,7.98,0,11.94,0,0,.04-.04,.04-.04Z"/>
    <path d="M220.67,12.15c.82,0,1.64,0,2.55,0,0,7.93,0,15.8,0,23.77-.78,0-1.57,0-2.51,0,0-7.95,0-15.88,0-23.81,0,0-.04,.04-.04,.04Z"/>
    <path d="M122.27,36.04c0-3.92,0-7.84,0-11.86,1.71,0,3.38,0,5.2,0,0,3.95,0,7.91,0,11.86,0,0,.04-.04,.04-.04h-5.28s.04,.04,.04,.04Z"/>
    <path d="M101,12.16c0-4.01,0-8.01,0-12.11,.85,0,1.6,0,2.48,0,0,3.94,0,7.92,0,12.07-.82,0-1.67,0-2.52,0,0,0,.04,.04,.04,.04Z"/>
    <path d="M247.22,12.15c0-4,0-8,0-12.1h2.63c0,3.99,0,8.02,0,12.05,0,0,.04-.05,.04-.05-.9,.02-1.8,.04-2.71,.06l.04,.04Z"/>
    <path d="M241.97,12.16c0-4.01,0-8.02,0-12.12h2.58c0,4.03,0,8.07,0,12.11,0,0,.04-.04,.04-.04-.89,0-1.77,0-2.66,0l.04,.04Z"/>
    <path d="M122.27,48.23h-2.55c0-4.05,0-8.04,0-12.19,.84,0,1.7,0,2.55,0l-.04-.04v12.27s.04-.04,.04-.04Z"/>
    <path d="M204.7,12.12h-2.55c0-4.04,0-8.02,0-12.08,.8,0,1.55,0,2.51,0,0,4.04,0,8.08,0,12.13,0,0,.04-.04,.04-.04Z"/>
    <path d="M236.44,48.23c-.89,0-1.78,0-2.66,0,0,0,.04,.04,.04,.04,0-4.09,0-8.18,0-12.27l-.04,.04h2.66s-.04-.04-.04-.04c0,4.09,0,8.18,0,12.27,0,0,.04-.04,.04-.04Z"/>
    <path d="M247.18,12.11c0,3.92,0,7.85,0,11.95-.92,0-1.77,0-2.63,0l.04,.04c0-3.99,0-7.99,0-11.98,0,0-.04,.04-.04,.04,.89,0,1.78,0,2.67,0,0,0-.04-.04-.04-.04Z"/>
    <path d="M252.46,24.06h-2.58c0-4.03,0-8.02,0-12,0,0-.04,.05-.04,.04,.87,.02,1.74,.04,2.62,.05l-.04-.04c0,3.99,0,7.99,0,11.98l.04-.04Z"/>
    <path d="M202.15,48.31h2.45c0,3.96,0,7.85,0,11.81-.83,0-1.59,0-2.45,0,0-3.9,0-7.8,0-11.81Z"/>
    <path d="M239.02,48.23c0,3.92,0,7.84,0,11.86h-2.58c0-3.95,0-7.9,0-11.86,0,0-.04,.04-.04,.04,.89,0,1.77,0,2.66,0l-.04-.04Z"/>
</svg>