<svg
    id="discogs"
    class="SVGlogo"
    xmlns="http://www.w3.org/2000/svg"
    viewBox="0 0 108.6 108.2"
    role="img"
    aria-describedby="discogs--title">
    <title id="discogs--title">Discogs logo</title>

    <path class="cls-1" d="M26.6,54c0,7.9,3.3,14.9,8.5,20l5.2-5.7,.1,.1c-3.8-3.6-6.1-8.7-6.1-14.4,0-11.1,9-20.1,20.1-20.1,3.7,0,7.1,1,10,2.7l3.7-6.8c-4.1-2.3-8.7-3.6-13.7-3.6-15.3,0-27.8,12.5-27.8,27.8Z"/>
    <path class="cls-1" d="M74.4,54c0,11.1-9,20.1-20,20.1-3.4,0-6.5-.8-9.3-2.3h0l-3.8,6.7c3.9,2.1,8.4,3.3,13.1,3.3,15.3,0,27.8-12.5,27.8-27.8,0-7.6-3.1-14.5-8-19.5l-5.3,5.7c3.4,3.6,5.5,8.4,5.5,13.8Z"/>
    <path class="cls-1" d="M17.8,54c0,10.4,4.4,19.8,11.4,26.5l5.3-5.7c-5.5-5.2-8.9-12.6-8.9-20.7,0-15.9,12.9-28.8,28.8-28.8,5.2,0,10,1.4,14.2,3.8l3.8-6.8c-5.3-3-11.4-4.7-18-4.7-20.2-.2-36.6,16.2-36.6,36.4Z"/>
    <path class="cls-1" d="M83.1,54c0,15.9-12.9,28.8-28.8,28.8-4.9,0-9.5-1.2-13.6-3.4l-3.8,6.8c5.2,2.8,11.1,4.4,17.4,4.4,20.2,0,36.6-16.4,36.6-36.6,0-10.1-4.1-19.3-10.8-25.9l-5.3,5.7c5.2,5.2,8.3,12.3,8.3,20.2Z"/>
    <path class="cls-1" d="M91.9,54c0,20.7-16.9,37.6-37.6,37.6-6.5,0-12.6-1.6-17.9-4.5l-3.9,6.9c6.5,3.5,13.9,5.6,21.8,5.6,25.1,0,45.4-20.4,45.4-45.4,0-12.7-5.2-24.2-13.6-32.4l-5.3,5.8c6.9,6.5,11.1,16,11.1,26.4Z"/>
    <path class="cls-1" d="M8.9,54c0,13,5.5,24.7,14.2,33l5.3-5.8c-7.2-6.8-11.7-16.5-11.7-27.2,0-20.7,16.9-37.6,37.6-37.6,6.7,0,13,1.8,18.4,4.9l3.8-6.9c-6.6-3.7-14.2-5.8-22.2-5.8-25-.1-45.4,20.3-45.4,45.4Z"/>
    <path class="cls-1" d="M92.1,15.2l-5.2,5.6c8.6,8.4,14,20.2,14,33.1,0,25.6-20.8,46.4-46.4,46.4-8.1,0-15.6-2.1-22.2-5.7l-3.9,6.9c7.7,4.2,16.6,6.7,26,6.7,29.9,0,54.2-24.3,54.2-54.2-.1-15.2-6.4-28.9-16.5-38.8Z"/>
    <path class="cls-1" d="M7.9,54C7.9,28.4,28.7,7.6,54.3,7.6c8.2,0,16,2.2,22.7,6l3.7-6.7C73.1,2.6,64.4,.1,55.1,0h-.9C24.4,0,.3,24,0,53.7H0v.5c0,15.5,6.6,29.5,17.1,39.4l5.4-5.8c-9-8.6-14.6-20.5-14.6-33.8Z"/>
</svg>