<svg
    id="linkedin"
    class="SVGlogo"
    xmlns="http://www.w3.org/2000/svg"
    viewBox="0 0 75.77 76.25"
    role="img"
    aria-describedby="linkedin--title">
    <title id="linkedin--title">LinkedIn logo</title>

    <path d="M40.74,34.39v-.12s-.05,.08-.08,.12h.08Z"/>
    <path d="M70.17,0H5.6C2.51,0,0,2.45,0,5.46V70.79c0,3.02,2.51,5.46,5.6,5.46H70.17c3.09,0,5.6-2.45,5.6-5.46V5.46c0-3.02-2.51-5.46-5.6-5.46ZM22.97,63.83H11.52V29.4h11.44V63.83Zm-5.72-39.13h-.07c-3.84,0-6.32-2.64-6.32-5.95s2.56-5.95,6.47-5.95,6.32,2.57,6.4,5.95c0,3.3-2.48,5.95-6.47,5.95Zm46.99,39.13h-11.44v-18.42c0-4.63-1.66-7.79-5.8-7.79-3.16,0-5.04,2.13-5.87,4.19-.3,.74-.38,1.76-.38,2.79v19.23h-11.44s.15-31.2,0-34.43h11.44v4.88c1.52-2.35,4.24-5.68,10.31-5.68,7.53,0,13.18,4.92,13.18,15.5v19.74Z"/>
</svg>