<svg
    id="feedRateIcon"
    class="icon"
    xmlns="http://www.w3.org/2000/svg"
    viewBox="0 0 82 82">
    <title id="illus__art--title">Feed Rate Calculator icon</title>
    <desc id="illus__art--desc">The flutes of an end mill cutting along some material.</desc>

    <rect class="clr-600" x="5.36" y="64.24" width="2" height="16.76"/>
    <rect class="clr-600" x="19.22" y="64.24" width="2" height="16.76"/>
    <rect class="clr-600" x="33.07" y="68.61" width="2" height="12.39"/>
    <rect class="clr-600" x="46.93" y="68.61" width="2" height="12.39"/>
    <rect class="clr-600" x="60.78" y="64.24" width="2" height="16.76"/>
    <rect class="clr-600" x="74.64" y="64.24" width="2" height="16.76"/>
    <path class="clr-1000" d="m0,0v82h82V0H0Zm50.18,45.59c2.29,6.89,4.24,14.47,4.4,22.02h-4.4v-22.02Zm-2,22.02h-12.87c.27-12.5,5.49-25.7,10.56-38.47.77-1.95,1.55-3.91,2.31-5.88v44.35Zm-14.9-55.68c-1.21-3.64-2.13-6.89-2.81-9.93h2.81v9.93Zm2-9.93h11.29c-1.97,8.7-5.52,17.69-8.97,26.4-.77,1.95-1.55,3.91-2.31,5.88V2Zm13.34,0h3.86c-2.56,8.67-7.16,17.63-11.64,26.31-1.56,3.03-3.14,6.08-4.64,9.15,1.06-2.79,2.16-5.57,3.25-8.32,3.54-8.93,7.19-18.15,9.17-27.14Zm-19.71,65.27c.46-12.35,7.19-25.4,13.71-38.04,1.56-3.03,3.13-6.09,4.64-9.16-1.06,2.79-2.16,5.58-3.25,8.33-5.14,12.95-10.43,26.33-10.7,39.2h-4.41c0-.11,0-.22,0-.34Zm51.09,12.73H2V2h26.43c1.03,4.66,2.58,9.77,4.86,15.99v21.58c-3.56,9.72-6.41,19.52-6.41,29.04v1h29.71v-1c0-10.2-3.23-20.4-6.41-29.06v-21.58c1.96-5.33,3.69-10.69,4.85-15.97h24.97v78Z"/>
</svg>