<svg
    id="toolLengthIcon"
    class="icon"
    xmlns="http://www.w3.org/2000/svg"
    viewBox="0 0 82 82">
    <title id="illus__art--title">Tool Length Calculator icon</title>
    <desc id="illus__art--desc">Two construction lines marking the distance between the tool holder and the start of the end mill’s flutes.</desc>

    <rect class="clr-600" x="1" y="55.49" width="80" height="2"/>
    <rect class="clr-600" x="50.99" y="29.74" width="30.01" height="2"/>
    <rect class="clr-600" x="1" y="29.74" width="30.01" height="2"/>
    <path class="clr-1000" d="m0,0v82h82V0H0Zm65.41,80H16.62v-4.13c0-.86.14-1.7.41-2.52l5.04-15.12c.15-.45.56-.75,1.04-.75h35.61c.6,0,1.13.38,1.32.95l4.97,14.91c.27.81.41,1.66.41,2.52v4.13ZM39.6,6.45c.68-1.48,1.36-2.97,2.03-4.45h2.63c-2.03,4.38-4.34,8.74-6.61,12.98-1.74,3.24-3.41,6.38-4.88,9.38,1.3-5.91,4.1-11.98,6.83-17.91Zm-2.97,1.67V2h2.8c-.54,1.2-1.09,2.41-1.64,3.61-.38.83-.77,1.67-1.15,2.51Zm13.37,37.92h-17.99v-2.38c.26.19.57.28.89.24.79-.12,1.18-.84,2.01-2.43.59-1.11,1.39-2.64,2.45-4.07,1.34-1.81,2.37-2.65,2.86-2.96.31.43.77,1.14,1.14,1.71,1.44,2.22,2.2,3.31,2.85,3.7.52.31,1.17.25,1.93-.18,1.06-.6,2.62-2.14,3.87-3.94v10.32Zm-5.48-8.77c-.48-.67-1.07-1.58-1.49-2.22-1.45-2.23-1.8-2.77-2.54-2.77-1.16,0-2.93,1.46-4.75,3.92-1.15,1.55-1.99,3.15-2.61,4.33-.02.03-.03.06-.05.09-.33-2.2-.75-6.1-1.06-9.73,1.81-4.57,4.52-9.62,7.38-14.97,2.02-3.78,4.09-7.66,5.97-11.58v7.7c0,2.69.34,4.98.7,7.4.4,2.67.81,5.43.81,9.05s-1.48,7.08-2.36,8.8Zm-14.02,18.21v-4.91h21v4.91h-21Zm.76-6.91l.32-.54h18.85l.32.54h-19.49Zm16.11-12.73c.78-1.98,1.52-4.57,1.52-7.37,0-3.02-.27-5.44-.59-7.69,1,3.23,1.7,6.61,1.7,9.96,0,1.47-1.31,3.54-2.63,5.1ZM2,2h32.63v10.64c-2.54,5.98-4.57,12.01-4.62,17.9l-.02.06.02.19v15.98l-1.51,2.54v6.18h-5.39c-1.33,0-2.51.85-2.93,2.11l-5.04,15.12c-.34,1.02-.51,2.08-.51,3.15v4.13H2V2Zm78,78h-12.59v-4.13c0-1.07-.17-2.13-.51-3.15l-4.97-14.91c-.46-1.39-1.76-2.32-3.22-2.32h-5.21v-6.18l-1.51-2.54v-16.02c0-6.36-2.31-12.69-4.6-18.07,0-.22-.02-.42-.02-.65V2h32.63v78Z"/>
    <rect class="clr-1000" x="18.73" y="73.41" width="44.54" height="2"/>
</svg>