<svg
    xmlns="http://www.w3.org/2000/svg" 
    viewBox="0 0 28 28"
    aria-hidden="true">
    <circle class="stroke--md" cx="14" cy="14" r="2.97"/>
    <path class="stroke--md" d="M22.75,15.26l-.02,.03c.06-.42,.1-.85,.1-1.29s-.04-.87-.1-1.29l.02,.03,2.67-2.07c-.26-.9-.62-1.78-1.11-2.62s-1.07-1.6-1.72-2.27l-3.13,1.28v.02c-.66-.53-1.4-.96-2.2-1.28h.02l-.46-3.35c-.91-.22-1.85-.35-2.82-.35s-1.92,.13-2.82,.35l-.46,3.35h.02c-.8,.32-1.55,.75-2.21,1.28v-.02l-3.12-1.28c-.64,.68-1.23,1.43-1.72,2.27s-.85,1.73-1.11,2.62l2.67,2.07,.02-.03c-.06,.42-.1,.85-.1,1.29s.04,.87,.1,1.29l-.02-.03-2.67,2.07c.26,.9,.62,1.78,1.11,2.62,.49,.84,1.07,1.6,1.72,2.27l3.13-1.28v-.02c.66,.53,1.4,.96,2.2,1.28h-.02l.46,3.35c.91,.22,1.85,.35,2.82,.35s1.92-.13,2.82-.35l.46-3.35h-.02c.8-.32,1.55-.75,2.21-1.28v.02l3.12,1.28c.64-.68,1.23-1.43,1.72-2.27s.85-1.73,1.11-2.62l-2.67-2.07Z"/>
</svg>