<svg 
    id="vimeo"
    class="SVGlogo"
    xmlns="http://www.w3.org/2000/svg"
    viewBox="0 0 106 105"
    role="img"
    aria-describedby="vimeo--title">
    <title id="vimeo--title">Vimeo logo</title>

    <path d="M99.95,35.05c-.45,9.75-7.24,23.11-20.39,40.06-13.6,17.71-25.1,26.56-34.51,26.56-5.83,0-10.76-5.39-14.79-16.17-2.69-9.88-5.38-19.77-8.07-29.65-2.99-10.78-6.2-16.17-9.63-16.17-.75,0-3.37,1.58-7.85,4.72L0,38.31c4.94-4.34,9.8-8.69,14.59-13.04,6.58-5.7,11.52-8.7,14.82-9,7.78-.75,12.57,4.58,14.37,15.99,1.94,12.31,3.29,19.97,4.04,22.96,2.24,10.21,4.71,15.31,7.41,15.31,2.09,0,5.24-3.31,9.43-9.94,4.19-6.63,6.43-11.67,6.73-15.13,.6-5.72-1.65-8.58-6.73-8.58-2.39,0-4.86,.55-7.4,1.64,4.91-16.13,14.3-23.96,28.16-23.52,10.28,.3,15.12,6.98,14.53,20.03Z"/>
</svg>