<?xml version="1.0" encoding="UTF-8"?><svg id="Layer_2" xmlns="http://www.w3.org/2000/svg" viewBox="0 0 500 500"><defs><style>.cls-1{fill:#11d3e7;}.cls-2{fill:#fff;}</style></defs><g id="Layer_5"><rect class="cls-1" x="0" width="500" height="500" rx="30" ry="30"/></g><g id="Layer_2-2"><g><path class="cls-2" d="M409.86,199.87c3.06,62.92-45.01,115.32-106.28,119.25l-7.38-7.64-67.49-69.89h66.82c20.8,0,37.82-17.32,36.61-38.09-1.1-18.86-16.76-33.83-35.9-33.83H159.24L84,91.76h211.09c60.83,0,111.82,47.35,114.77,108.11Z"/><polygon class="cls-2" points="375.63 428.24 274.24 428.24 240.02 392.81 168.94 319.2 94 241.59 195.38 241.59 266.59 315.33 270.33 319.2 292.49 342.15 375.63 428.24"/></g></g></svg>