<?xml version="1.0" encoding="UTF-8"?><svg id="Layer_2" xmlns="http://www.w3.org/2000/svg" viewBox="0 0 180 180"><defs><style>.cls-1{fill:#fff;}.cls-2{fill:#11d2e6;}.cls-3{fill:none;stroke:#96dfe6;stroke-miterlimit:10;stroke-width:2px;}</style></defs><g id="Layer_5"><rect class="cls-2" x="0" y="0" width="180" height="180" rx="15" ry="15"/><rect class="cls-3" x="10" y="10" width="160" height="160" rx="36.71" ry="36.71"/><rect class="cls-3" x="15" y="15" width="150" height="150" rx="51.4" ry="51.4"/><rect class="cls-3" x="5" y="5" width="170" height="170" rx="23.82" ry="23.82"/></g><g id="Layer_2-2"><g><path class="cls-1" d="M127.97,79.18c.73,15.09-10.79,27.65-25.48,28.59l-1.77-1.83-16.18-16.76h16.02c4.99,0,9.07-4.15,8.78-9.13-.26-4.52-4.02-8.11-8.61-8.11h-32.85l-18.04-18.68h50.61c14.59,0,26.81,11.35,27.52,25.92Z"/><polygon class="cls-1" points="119.76 133.94 95.45 133.94 87.25 125.44 70.21 107.79 52.24 89.19 76.54 89.19 93.62 106.87 94.51 107.79 99.83 113.3 119.76 133.94"/></g><circle class="cls-3" cx="90.18" cy="90.18" r="70"/></g></svg>