<svg xmlns="http://www.w3.org/2000/svg" viewBox="0 0 650 700"><defs><style>.cls-1,.cls-2,.cls-3,.cls-4,.cls-5,.cls-6{fill:none;}.cls-1{stroke:#ccc;}.cls-1,.cls-2,.cls-3,.cls-4,.cls-6{stroke-miterlimit:10;}.cls-1,.cls-6{stroke-width:1.5px;}.cls-2{stroke:#8cc63f;stroke-width:2px;}.cls-3,.cls-6{stroke:#4d4d4d;}.cls-4{stroke:#b3b3b3;}</style></defs><g id="Layer_2" data-name="Layer 2"><g id="Layer_3" data-name="Layer 3"><polygon class="cls-1" points="325 5.27 11.5 548.27 638.5 548.27 325 5.27"/><path d="M313.08,372.26a6.64,6.64,0,0,1-3.57-.93,5.93,5.93,0,0,1-2.28-2.59,10,10,0,0,1,0-7.75,5.9,5.9,0,0,1,2.28-2.6,6.64,6.64,0,0,1,3.57-.92,6.42,6.42,0,0,1,4,1.22,6.23,6.23,0,0,1,2.22,3.39l-1.79.49A4.8,4.8,0,0,0,316,360a4.47,4.47,0,0,0-2.88-.9,4.24,4.24,0,0,0-3.53,1.55,6.57,6.57,0,0,0-1.24,4.17,7.78,7.78,0,0,0,.53,3,4.24,4.24,0,0,0,1.62,2,4.68,4.68,0,0,0,2.62.71,4.47,4.47,0,0,0,2.88-.9,4.8,4.8,0,0,0,1.58-2.53l1.79.49a6.23,6.23,0,0,1-2.22,3.39A6.43,6.43,0,0,1,313.08,372.26Z"/><path d="M321.5,357.76h8.28v1.76h-6.52V364h5.34v1.78h-5.34V372H321.5Z"/><path d="M337.16,372.26a6,6,0,0,1-2.91-.69,4.82,4.82,0,0,1-2-1.92,5.62,5.62,0,0,1-.71-2.88v-9l1.77,0v8.88a4,4,0,0,0,.56,2.15,3.82,3.82,0,0,0,1.44,1.36,4,4,0,0,0,1.83.45,3.93,3.93,0,0,0,1.83-.45,3.72,3.72,0,0,0,1.43-1.36,3.89,3.89,0,0,0,.56-2.15v-8.88h1.78v9a5.72,5.72,0,0,1-.71,2.88,4.88,4.88,0,0,1-2,1.92A6,6,0,0,1,337.16,372.26Z"/><line class="cls-2" x1="218.18" y1="559.44" x2="295.7" y2="559.44"/><rect class="cls-3" x="299.7" y="557.3" width="4.27" height="4.27"/><rect class="cls-3" x="209.92" y="557.3" width="4.27" height="4.27"/><line class="cls-4" x1="307.97" y1="555.3" x2="307.97" y2="563.57"/><line class="cls-4" x1="205.92" y1="555.3" x2="205.92" y2="563.57"/><line class="cls-2" x1="353.31" y1="559.44" x2="430.82" y2="559.44"/><rect class="cls-3" x="434.82" y="557.3" width="4.27" height="4.27"/><rect class="cls-3" x="345.04" y="557.3" width="4.27" height="4.27"/><line class="cls-4" x1="443.09" y1="555.3" x2="443.09" y2="563.57"/><line class="cls-4" x1="341.04" y1="555.3" x2="341.04" y2="563.57"/><line class="cls-2" x1="544.85" y1="363.69" x2="506.1" y2="296.56"/><rect class="cls-3" x="500.9" y="289.12" width="4.27" height="4.27" transform="translate(502.31 872.51) rotate(-120)"/><rect class="cls-3" x="545.79" y="366.87" width="4.27" height="4.27" transform="matrix(-0.5, -0.87, 0.87, -0.5, 502.31, 1028.02)"/><line class="cls-4" x1="496.38" y1="288" x2="503.54" y2="283.87"/><line class="cls-4" x1="547.41" y1="376.38" x2="554.57" y2="372.25"/><line class="cls-2" x1="477.29" y1="246.67" x2="438.53" y2="179.54"/><rect class="cls-3" x="433.33" y="172.09" width="4.27" height="4.27" transform="matrix(-0.5, -0.87, 0.87, -0.5, 502.31, 638.46)"/><rect class="cls-3" x="478.22" y="249.85" width="4.27" height="4.27" transform="matrix(-0.5, -0.87, 0.87, -0.5, 502.31, 793.97)"/><line class="cls-4" x1="428.82" y1="170.98" x2="435.98" y2="166.85"/><line class="cls-4" x1="479.84" y1="259.36" x2="487" y2="255.23"/><line class="cls-2" x1="212.01" y1="178.66" x2="173.25" y2="245.79"/><rect class="cls-3" x="168.05" y="248.97" width="4.27" height="4.27" transform="translate(472.74 229.27) rotate(120)"/><rect class="cls-3" x="212.94" y="171.22" width="4.27" height="4.27" transform="translate(472.74 73.76) rotate(120)"/><line class="cls-4" x1="170.7" y1="258.48" x2="163.54" y2="254.35"/><line class="cls-4" x1="221.72" y1="170.1" x2="214.57" y2="165.97"/><line class="cls-2" x1="144.45" y1="295.68" x2="105.69" y2="362.81"/><rect class="cls-3" x="100.49" y="365.99" width="4.27" height="4.27" transform="translate(472.74 463.31) rotate(120)"/><rect class="cls-3" x="145.38" y="288.24" width="4.27" height="4.27" transform="translate(472.74 307.8) rotate(120)"/><line class="cls-4" x1="103.14" y1="375.5" x2="95.98" y2="371.37"/><line class="cls-4" x1="154.16" y1="287.13" x2="147" y2="282.99"/><rect class="cls-5" width="650" height="700"/><line class="cls-4" x1="325" y1="401.81" x2="325" y2="414.81"/><line class="cls-4" x1="315" y1="401.81" x2="315" y2="414.81"/><line class="cls-4" x1="305" y1="401.81" x2="305" y2="414.81"/><line class="cls-4" x1="335" y1="401.81" x2="335" y2="414.81"/><line class="cls-4" x1="345" y1="401.81" x2="345" y2="414.81"/><line class="cls-4" x1="354.93" y1="350.03" x2="366.29" y2="343.47"/><line class="cls-4" x1="360.03" y1="358.63" x2="371.29" y2="352.13"/><line class="cls-4" x1="365.03" y1="367.29" x2="376.29" y2="360.79"/><line class="cls-4" x1="350.03" y1="341.31" x2="361.29" y2="334.81"/><line class="cls-4" x1="345.03" y1="332.65" x2="356.29" y2="326.15"/><line class="cls-4" x1="295.08" y1="350" x2="283.83" y2="343.5"/><line class="cls-4" x1="300.08" y1="341.34" x2="288.83" y2="334.84"/><line class="cls-4" x1="305.08" y1="332.68" x2="293.83" y2="326.18"/><line class="cls-4" x1="290.08" y1="358.66" x2="278.83" y2="352.16"/><line class="cls-4" x1="285.08" y1="367.32" x2="273.83" y2="360.82"/><polygon class="cls-6" points="325 298.19 265.17 401.81 384.83 401.81 325 298.19"/><polygon class="cls-6" points="553.94 401.81 409.42 151.49 255.58 151.49 399.83 401.81 553.94 401.81"/><polygon class="cls-6" points="240.58 151.49 96.2 401.56 173.12 535.25 317.51 285.17 240.58 151.49"/><polygon class="cls-6" points="257.67 414.81 180.62 548.27 469.38 548.27 546.44 414.81 257.67 414.81"/></g></g></svg>