<svg xmlns="http://www.w3.org/2000/svg" viewBox="0 0 650 700"><defs><style>.cls-1{fill:#bfbfbf;}.cls-2{fill:none;}</style></defs><g id="Layer_2" data-name="Layer 2"><g id="Layer_2-2" data-name="Layer 2"><polygon class="cls-1" points="284.37 481.54 245.84 548.27 218.1 548.27 256.63 481.54 284.37 481.54"/><polygon class="cls-1" points="350.97 414.81 332.55 446.72 318.48 446.72 336.91 414.81 350.97 414.81"/><polygon class="cls-1" points="358.43 481.54 319.91 548.27 288.26 548.27 326.79 481.54 358.43 481.54"/><polygon class="cls-1" points="436.55 481.54 398.02 548.27 388.02 548.27 426.55 481.54 436.55 481.54"/><polygon class="cls-1" points="444.3 345.32 521.36 345.32 535.23 369.35 458.17 369.34 444.3 345.32"/><polygon class="cls-1" points="353.21 321.01 390.06 321 397.09 333.19 360.24 333.18 353.21 321.01"/><polygon class="cls-1" points="407.27 281.18 484.32 281.18 500.14 308.58 423.09 308.58 407.27 281.18"/><polygon class="cls-1" points="368.21 213.53 445.26 213.53 450.26 222.19 373.21 222.19 368.21 213.53"/><polygon class="cls-1" points="246.38 274.93 207.85 208.2 221.72 184.17 260.25 250.91 246.38 274.93"/><polygon class="cls-1" points="270.87 365.97 252.44 334.06 259.48 321.88 277.9 353.8 270.87 365.97"/><polygon class="cls-1" points="209.35 339.07 170.82 272.34 186.64 244.93 225.17 311.67 209.35 339.07"/><polygon class="cls-1" points="170.29 406.72 131.76 339.99 136.76 331.33 175.29 398.06 170.29 406.72"/><rect class="cls-2" width="650" height="700"/></g></g></svg>