<svg xmlns="http://www.w3.org/2000/svg" viewBox="0 0 916 916">
    <defs>
        <style>.cls-9{fill:#e6e6e6;}.cls-9,.cls-10{stroke:#4d4d4d;}.cls-9,.cls-10,.cls-11,.cls-13,.cls-14{stroke-miterlimit:10;stroke-width:1.5px;}.cls-10,.cls-11,.cls-13,.cls-15{fill:none;}.cls-11,.cls-14{stroke:#b3b3b3;}.cls-12,.cls-14{fill:#b3b3b3;}.cls-13{stroke:#ccc;}</style>
    </defs>
    <g id="Layer_2" data-name="Layer 2">
        <g id="Layer_3" data-name="Layer 3">
            <rect class="cls-9" x="507.59" y="798.92" width="9.83" height="49.98" transform="translate(-250.89 224.97) rotate(-20)"/>
            <rect class="cls-9" x="398.59" y="798.92" width="9.83" height="49.98" transform="translate(306.13 -88.32) rotate(20)"/>
            <polyline class="cls-10" points="442 382.5 443.33 379.5 450.67 379.5 452 382.5"/>
            <polyline class="cls-10" points="464 382.5 465.33 379.5 472.67 379.5 474 382.5"/>
            <polyline class="cls-9" points="450.5 382.5 452.5 379.5 463.5 379.5 465.5 382.5"/>
            <polyline class="cls-10" points="474 533.5 472.67 536.5 465.33 536.5 464 533.5"/>
            <polyline class="cls-10" points="452 533.5 450.67 536.5 443.33 536.5 442 533.5"/>
            <polyline class="cls-9" points="465.5 533.5 463.5 536.5 452.5 536.5 450.5 533.5"/>
            <rect class="cls-10" x="437.5" y="461.5" width="41" height="28" transform="translate(916 951) rotate(180)"/>
            <polyline class="cls-10" points="478.5 489.5 472.5 496.5 443.5 496.5 437.5 489.5"/>
            <rect class="cls-10" x="437.5" y="851.5" width="41" height="4" transform="translate(916 1707) rotate(180)"/>
            <polyline class="cls-10" points="478.5 855.5 472.5 862.5 443.5 862.5 437.5 855.5"/>
            <rect class="cls-10" x="437.5" y="382.5" width="41" height="28" transform="translate(916 793) rotate(180)"/>
            <polyline class="cls-10" points="478.5 410.5 472.5 417.5 443.5 417.5 437.5 410.5"/>
            <rect class="cls-10" x="437.5" y="426.5" width="41" height="28"/>
            <rect class="cls-9" x="420.5" y="453" width="75" height="10"/>
            <polygon class="cls-9" points="428.5 437.5 426.5 439.5 426.5 477.5 428.5 479.5 487.5 479.5 489.5 477.5 489.5 439.5 487.5 437.5 428.5 437.5"/>
            <circle class="cls-9" cx="458" cy="458" r="29.5"/>
            <rect class="cls-10" x="495.5" y="432.5" width="3" height="52"/>
            <rect class="cls-10" x="417.5" y="432.5" width="3" height="52"/>
            <line class="cls-11" x1="512.5" y1="432.64" x2="512.5" y2="456.5"/>
            <line class="cls-11" x1="504.5" y1="432.64" x2="504.5" y2="456.5"/>
            <line class="cls-11" x1="520.5" y1="432.64" x2="520.5" y2="456.5"/>
            <line class="cls-11" x1="528.5" y1="432.64" x2="528.5" y2="456.5"/>
            <line class="cls-11" x1="536.5" y1="432.64" x2="536.5" y2="456.5"/>
            <line class="cls-11" x1="544.5" y1="432.64" x2="544.5" y2="456.5"/>
            <line class="cls-11" x1="552.5" y1="432.64" x2="552.5" y2="456.5"/>
            <line class="cls-11" x1="560.5" y1="432.64" x2="560.5" y2="456.5"/>
            <line class="cls-11" x1="568.5" y1="432.64" x2="568.5" y2="456.5"/>
            <line class="cls-11" x1="576.5" y1="432.64" x2="576.5" y2="456.5"/>
            <line class="cls-11" x1="584.5" y1="432.64" x2="584.5" y2="456.5"/>
            <line class="cls-11" x1="592.5" y1="432.64" x2="592.5" y2="456.5"/>
            <line class="cls-11" x1="600.5" y1="432.64" x2="600.5" y2="456.5"/>
            <line class="cls-11" x1="608.5" y1="432.64" x2="608.5" y2="456.5"/>
            <line class="cls-11" x1="616.5" y1="432.64" x2="616.5" y2="456.5"/>
            <line class="cls-11" x1="624.5" y1="432.64" x2="624.5" y2="456.5"/>
            <line class="cls-11" x1="632.5" y1="432.64" x2="632.5" y2="456.5"/>
            <line class="cls-11" x1="640.5" y1="432.64" x2="640.5" y2="456.5"/>
            <line class="cls-11" x1="648.5" y1="432.64" x2="648.5" y2="456.5"/>
            <line class="cls-11" x1="656.5" y1="432.64" x2="656.5" y2="456.5"/>
            <line class="cls-11" x1="664.5" y1="432.64" x2="664.5" y2="456.5"/>
            <line class="cls-11" x1="504.5" y1="460.64" x2="504.5" y2="484.5"/>
            <line class="cls-11" x1="512.5" y1="460.64" x2="512.5" y2="484.5"/>
            <line class="cls-11" x1="520.5" y1="460.64" x2="520.5" y2="484.5"/>
            <line class="cls-11" x1="528.5" y1="460.64" x2="528.5" y2="484.5"/>
            <line class="cls-11" x1="536.5" y1="460.64" x2="536.5" y2="484.5"/>
            <line class="cls-11" x1="544.5" y1="460.64" x2="544.5" y2="484.5"/>
            <line class="cls-11" x1="552.5" y1="460.64" x2="552.5" y2="484.5"/>
            <line class="cls-11" x1="560.5" y1="460.64" x2="560.5" y2="484.5"/>
            <line class="cls-11" x1="568.5" y1="460.64" x2="568.5" y2="484.5"/>
            <line class="cls-11" x1="576.5" y1="460.64" x2="576.5" y2="484.5"/>
            <line class="cls-11" x1="584.5" y1="460.64" x2="584.5" y2="484.5"/>
            <line class="cls-11" x1="592.5" y1="460.64" x2="592.5" y2="484.5"/>
            <line class="cls-11" x1="600.5" y1="460.64" x2="600.5" y2="484.5"/>
            <line class="cls-11" x1="608.5" y1="460.64" x2="608.5" y2="484.5"/>
            <line class="cls-11" x1="616.5" y1="460.64" x2="616.5" y2="484.5"/>
            <line class="cls-11" x1="624.5" y1="460.64" x2="624.5" y2="484.5"/>
            <line class="cls-11" x1="632.5" y1="460.64" x2="632.5" y2="484.5"/>
            <line class="cls-11" x1="640.5" y1="460.64" x2="640.5" y2="484.5"/>
            <line class="cls-11" x1="648.5" y1="460.64" x2="648.5" y2="484.5"/>
            <line class="cls-11" x1="656.5" y1="460.64" x2="656.5" y2="484.5"/>
            <line class="cls-11" x1="664.5" y1="460.64" x2="664.5" y2="484.5"/>
            <line class="cls-11" x1="251.5" y1="432.64" x2="251.5" y2="456.5"/>
            <line class="cls-11" x1="259.5" y1="432.64" x2="259.5" y2="456.5"/>
            <line class="cls-11" x1="267.5" y1="432.64" x2="267.5" y2="456.5"/>
            <line class="cls-11" x1="275.5" y1="432.64" x2="275.5" y2="456.5"/>
            <line class="cls-11" x1="283.5" y1="432.64" x2="283.5" y2="456.5"/>
            <line class="cls-11" x1="291.5" y1="432.64" x2="291.5" y2="456.5"/>
            <line class="cls-11" x1="299.5" y1="432.64" x2="299.5" y2="456.5"/>
            <line class="cls-11" x1="307.5" y1="432.64" x2="307.5" y2="456.5"/>
            <line class="cls-11" x1="315.5" y1="432.64" x2="315.5" y2="456.5"/>
            <line class="cls-11" x1="323.5" y1="432.64" x2="323.5" y2="456.5"/>
            <line class="cls-11" x1="331.5" y1="432.64" x2="331.5" y2="456.5"/>
            <line class="cls-11" x1="339.5" y1="432.64" x2="339.5" y2="456.5"/>
            <line class="cls-11" x1="347.5" y1="432.64" x2="347.5" y2="456.5"/>
            <line class="cls-11" x1="355.5" y1="432.64" x2="355.5" y2="456.5"/>
            <line class="cls-11" x1="363.5" y1="432.64" x2="363.5" y2="456.5"/>
            <line class="cls-11" x1="371.5" y1="432.64" x2="371.5" y2="456.5"/>
            <line class="cls-11" x1="379.5" y1="432.64" x2="379.5" y2="456.5"/>
            <line class="cls-11" x1="387.5" y1="432.64" x2="387.5" y2="456.5"/>
            <line class="cls-11" x1="395.5" y1="432.64" x2="395.5" y2="456.5"/>
            <line class="cls-11" x1="403.5" y1="432.64" x2="403.5" y2="456.5"/>
            <line class="cls-11" x1="411.5" y1="432.64" x2="411.5" y2="456.5"/>
            <line class="cls-11" x1="251.5" y1="460.64" x2="251.5" y2="484.5"/>
            <line class="cls-11" x1="259.5" y1="460.64" x2="259.5" y2="484.5"/>
            <line class="cls-11" x1="267.5" y1="460.64" x2="267.5" y2="484.5"/>
            <line class="cls-11" x1="275.5" y1="460.64" x2="275.5" y2="484.5"/>
            <line class="cls-11" x1="283.5" y1="460.64" x2="283.5" y2="484.5"/>
            <line class="cls-11" x1="291.5" y1="460.64" x2="291.5" y2="484.5"/>
            <line class="cls-11" x1="299.5" y1="460.64" x2="299.5" y2="484.5"/>
            <line class="cls-11" x1="307.5" y1="460.64" x2="307.5" y2="484.5"/>
            <line class="cls-11" x1="315.5" y1="460.64" x2="315.5" y2="484.5"/>
            <line class="cls-11" x1="323.5" y1="460.64" x2="323.5" y2="484.5"/>
            <line class="cls-11" x1="331.5" y1="460.64" x2="331.5" y2="484.5"/>
            <line class="cls-11" x1="339.5" y1="460.64" x2="339.5" y2="484.5"/>
            <line class="cls-11" x1="347.5" y1="460.64" x2="347.5" y2="484.5"/>
            <line class="cls-11" x1="355.5" y1="460.64" x2="355.5" y2="484.5"/>
            <line class="cls-11" x1="363.5" y1="460.64" x2="363.5" y2="484.5"/>
            <line class="cls-11" x1="371.5" y1="460.64" x2="371.5" y2="484.5"/>
            <line class="cls-11" x1="379.5" y1="460.64" x2="379.5" y2="484.5"/>
            <line class="cls-11" x1="387.5" y1="460.64" x2="387.5" y2="484.5"/>
            <line class="cls-11" x1="395.5" y1="460.64" x2="395.5" y2="484.5"/>
            <line class="cls-11" x1="403.5" y1="460.64" x2="403.5" y2="484.5"/>
            <line class="cls-11" x1="411.5" y1="460.64" x2="411.5" y2="484.5"/>
            <rect class="cls-10" x="500.5" y="432.5" width="168" height="24"/>
            <rect class="cls-10" x="500.5" y="460.5" width="168" height="24"/>
            <rect class="cls-10" x="247.5" y="432.5" width="168" height="24"/>
            <rect class="cls-10" x="247.5" y="460.5" width="168" height="24"/>
            <polyline class="cls-10" points="437.5 426.5 443.5 419.5 472.5 419.5 478.5 426.5"/>
            <rect class="cls-10" x="437.5" y="505.5" width="41" height="28"/>
            <polyline class="cls-10" points="437.5 505.5 443.5 498.5 472.5 498.5 478.5 505.5"/>
            <rect class="cls-10" x="443.5" y="417.5" width="29" height="2"/>
            <rect class="cls-10" x="443.5" y="496.5" width="29" height="2"/>
            <circle class="cls-10" cx="458" cy="458" r="20.5"/>
            <circle class="cls-10" cx="458" cy="458" r="4.5"/>
            <circle class="cls-11" cx="458" cy="458" r="18.5"/>
            <rect class="cls-9" x="456.5" y="432.5" width="3" height="52"/>
            <line class="cls-10" x1="458" y1="432" x2="458" y2="457"/>
            <line class="cls-10" x1="458" y1="460" x2="458" y2="485"/>
            <line class="cls-10" x1="469" y1="379.5" x2="469" y2="237"/>
            <line class="cls-10" x1="447" y1="379.5" x2="447" y2="237"/>
            <line class="cls-10" x1="458" y1="379.5" x2="458" y2="237"/>
            <line class="cls-10" x1="469" y1="797" x2="469" y2="536.25"/>
            <line class="cls-10" x1="447" y1="797" x2="447" y2="536.25"/>
            <line class="cls-10" x1="458" y1="797" x2="458" y2="536.25"/>
            <rect class="cls-10" x="457" y="366.5" width="2" height="13"/>
            <rect class="cls-10" x="446" y="366.5" width="2" height="13"/>
            <rect class="cls-10" x="468" y="366.5" width="2" height="13"/>
            <rect class="cls-10" x="457" y="237.5" width="2" height="13"/>
            <rect class="cls-10" x="446" y="237.5" width="2" height="13"/>
            <rect class="cls-10" x="468" y="237.5" width="2" height="13"/>
            <rect class="cls-10" x="457" y="536.5" width="2" height="13"/>
            <rect class="cls-10" x="446" y="536.5" width="2" height="13"/>
            <rect class="cls-10" x="468" y="536.5" width="2" height="13"/>
            <rect class="cls-10" x="457" y="784.5" width="2" height="13"/>
            <rect class="cls-10" x="446" y="784.5" width="2" height="13"/>
            <rect class="cls-10" x="468" y="784.5" width="2" height="13"/>
            <polygon class="cls-9" points="500.36 797.5 415.64 797.5 396 851.45 396 851.5 520 851.5 520 851.45 500.36 797.5"/>
            <rect class="cls-9" x="513.39" y="787.59" width="37.22" height="58.18" transform="translate(-247.24 231.21) rotate(-20)"/>
            <rect class="cls-9" x="365.39" y="787.59" width="37.22" height="58.18" transform="translate(302.48 -82.08) rotate(20)"/>
            <line class="cls-11" x1="414.28" y1="801.24" x2="501.72" y2="801.24"/>
            <line class="cls-11" x1="397" y1="848.24" x2="519" y2="848.24"/>
            <polygon class="cls-10" points="500.36 797.5 415.64 797.5 396 851.45 396 851.5 520 851.5 520 851.45 500.36 797.5"/>
            <polygon class="cls-10" points="450.94 838 465.06 838 468.33 829 447.67 829 450.94 838"/>
            <polygon class="cls-10" points="485.44 829 471.32 829 468.05 838 488.72 838 485.44 829"/>
            <polygon class="cls-10" points="444.68 829 430.56 829 427.28 838 447.95 838 444.68 829"/>
            <polygon class="cls-11" points="424.12 840.13 451.56 840.13 491.88 840.12 487.06 826.87 428.94 826.87 424.12 840.13"/>
            <polyline class="cls-11" points="523.05 846.49 550.09 836.65 552.65 831.14 538.58 792.48 533.09 789.92 506.04 799.76"/>
            <polyline class="cls-11" points="392.64 846.49 365.61 836.65 363.04 831.14 377.11 792.48 382.6 789.92 409.65 799.76"/>
            <rect class="cls-10" x="513.39" y="787.59" width="37.22" height="58.18" transform="translate(-247.24 231.21) rotate(-20)"/>
            <rect class="cls-10" x="365.39" y="787.59" width="37.22" height="58.18" transform="translate(302.48 -82.08) rotate(20)"/>
            <circle class="cls-12" cx="378.5" cy="787.75" r="1.25"/>
            <circle class="cls-12" cx="537.5" cy="787.75" r="1.25"/>
            <circle class="cls-12" cx="361" cy="835.07" r="1.25"/>
            <circle class="cls-12" cx="555" cy="835.07" r="1.25"/>
            <rect class="cls-10" x="513.14" y="800.23" width="7.78" height="4.74" transform="matrix(0.94, -0.34, 0.34, 0.94, -243.33, 225.24)"/>
            <rect class="cls-11" x="391.35" y="823.09" width="4.4" height="3.21" transform="matrix(0.94, 0.34, -0.34, 0.94, 305.79, -84.87)"/>
            <rect class="cls-11" x="389.64" y="827.78" width="4.4" height="3.21" transform="matrix(0.94, 0.34, -0.34, 0.94, 307.3, -84)"/>
            <rect class="cls-11" x="387.93" y="832.48" width="4.4" height="3.21" transform="matrix(0.94, 0.34, -0.34, 0.94, 308.8, -83.13)"/>
            <rect class="cls-11" x="386.22" y="837.18" width="4.4" height="3.21" transform="matrix(0.94, 0.34, -0.34, 0.94, 310.31, -82.26)"/>
            <rect class="cls-9" x="461.5" y="232.5" width="28" height="2"/>
            <rect class="cls-9" x="427.5" y="232.5" width="28" height="2"/>
            <rect class="cls-9" x="444" y="232.5" width="28" height="2"/>
            <polygon class="cls-9" points="422.5 234.5 422.5 237.5 422.5 241.07 427.5 241.07 430.63 237.5 486.38 237.5 489.5 241.07 494.5 241.07 494.5 237.5 494.5 234.5 422.5 234.5"/>
            <circle class="cls-12" cx="490.5" cy="237.83" r="1.25"/>
            <circle class="cls-12" cx="425.5" cy="237.83" r="1.25"/>
            <rect class="cls-9" x="461.5" y="232.5" width="28" height="2"/>
            <rect class="cls-9" x="427.5" y="232.5" width="28" height="2"/>
            <rect class="cls-9" x="444" y="232.5" width="28" height="2"/>
            <polygon class="cls-9" points="422.5 234.5 422.5 237.5 422.5 241.07 427.5 241.07 430.63 237.5 486.38 237.5 489.5 241.07 494.5 241.07 494.5 237.5 494.5 234.5 422.5 234.5"/>
            <circle class="cls-12" cx="490.5" cy="237.83" r="1.25"/>
            <circle class="cls-12" cx="425.5" cy="237.83" r="1.25"/>
            <rect class="cls-9" x="427.5" y="64.07" width="28" height="2" transform="translate(883 130.15) rotate(180)"/>
            <rect class="cls-9" x="461.5" y="64.07" width="28" height="2" transform="translate(951 130.15) rotate(180)"/>
            <rect class="cls-9" x="445" y="64.07" width="28" height="2" transform="translate(918 130.15) rotate(180)"/>
            <polygon class="cls-9" points="494.5 64.07 494.5 61.07 494.5 57.5 489.5 57.5 486.38 61.07 430.63 61.07 427.5 57.5 422.5 57.5 422.5 61.07 422.5 64.07 494.5 64.07"/>
            <circle class="cls-12" cx="426.5" cy="60.74" r="1.25"/>
            <circle class="cls-12" cx="491.5" cy="60.74" r="1.25"/>
            <rect class="cls-9" x="424.5" y="66" width="34" height="166.5"/>
            <rect class="cls-9" x="457.5" y="66" width="34" height="166.5"/>
            <rect class="cls-9" x="441" y="66" width="34" height="166.5"/>
            <polyline class="cls-11" points="469.2 66 472.8 109.56 474.8 112.91"/>
            <polyline class="cls-11" points="446.8 66 443.2 109.56 441.2 112.91"/>
            <polyline class="cls-11" points="485.7 66 489.3 109.56 491.3 112.91"/>
            <polyline class="cls-11" points="430.3 66 426.7 109.56 424.7 112.91"/>
            <rect class="cls-10" x="441" y="66" width="34" height="166.5"/>
            <rect class="cls-10" x="424.5" y="66" width="67" height="166.5"/>
            <line class="cls-13" x1="692.5" y1="458" x2="830.5" y2="458"/>
            <polygon class="cls-14" points="856.86 458 843 453 845 458 843 463 856.86 458"/>
            <line class="cls-13" x1="223.5" y1="458.5" x2="85.5" y2="458.5"/>
            <polygon class="cls-14" points="59.14 458.5 73 463.5 71 458.5 73 453.5 59.14 458.5"/>
            <rect class="cls-15" width="916" height="916"/>
        </g>
    </g>
</svg>
