<svg xmlns="http://www.w3.org/2000/svg" viewBox="0 0 59.53 230.44"><defs><style>.cls-1{fill:none;stroke:#4d4d4d;stroke-miterlimit:10;}</style></defs><g id="Layer_2" data-name="Layer 2"><g id="Layer_3" data-name="Layer 3"><path d="M37.69,186.79a7.7,7.7,0,0,1-.57,3A5.62,5.62,0,0,1,35.48,192,5.44,5.44,0,0,1,33,193.17l-.31-2A4,4,0,0,0,35,189.56a4.85,4.85,0,0,0,.84-2.86,4.73,4.73,0,0,0-.74-2.71,2.35,2.35,0,0,0-2-1.09,1.88,1.88,0,0,0-1.47.59,4,4,0,0,0-.83,1.61l-1.21,4a6.05,6.05,0,0,1-1.35,2.49,3.3,3.3,0,0,1-2.51.93,4,4,0,0,1-2.37-.72,4.62,4.62,0,0,1-1.54-2,6.93,6.93,0,0,1-.52-2.83,7,7,0,0,1,.55-2.85,5.38,5.38,0,0,1,1.59-2.1,5.57,5.57,0,0,1,2.47-1.1l.37,2.08A3.56,3.56,0,0,0,24,184.42a4.35,4.35,0,0,0-.87,2.63,4.59,4.59,0,0,0,.32,1.73,3,3,0,0,0,.89,1.25,2,2,0,0,0,1.29.46,1.65,1.65,0,0,0,1.46-.72,6.19,6.19,0,0,0,.82-1.91l.86-3a12.48,12.48,0,0,1,.7-1.86,4.09,4.09,0,0,1,1.25-1.47,3.67,3.67,0,0,1,2.26-.64,4.19,4.19,0,0,1,2.54.78,4.81,4.81,0,0,1,1.64,2.12A7.82,7.82,0,0,1,37.69,186.79Z"/><path d="M37.69,172.09a7.45,7.45,0,0,1-1,4,6.62,6.62,0,0,1-2.89,2.54,10.17,10.17,0,0,1-4.31.86,10.23,10.23,0,0,1-4.31-.86,6.65,6.65,0,0,1-2.88-2.54,8.19,8.19,0,0,1,0-7.95,6.67,6.67,0,0,1,2.88-2.52,10.08,10.08,0,0,1,4.31-.86,10,10,0,0,1,4.31.86,6.65,6.65,0,0,1,2.89,2.52A7.46,7.46,0,0,1,37.69,172.09Zm-1.87,0a4.68,4.68,0,0,0-1.72-3.92,7.26,7.26,0,0,0-4.64-1.36,7.26,7.26,0,0,0-4.62,1.35,4.78,4.78,0,0,0-1.74,3.93A4.7,4.7,0,0,0,24.81,176a7.43,7.43,0,0,0,4.65,1.37,8.41,8.41,0,0,0,3.34-.58A4.88,4.88,0,0,0,35,175,5.24,5.24,0,0,0,35.82,172.09Z"/><path d="M21.57,162.31v-1.95H35.49V153h1.87v9.27Z"/><path d="M21.57,147v-2.71L37.36,139v2L22.71,146v-.61l14.65,4.89v2Zm10.26,2.75v-8.21h1.84v8.21Z"/><path d="M21.57,137v-6.25a7.31,7.31,0,0,1,.09-1.17,4.28,4.28,0,0,1,1.62-2.88,5.23,5.23,0,0,1,3.27-1,5.26,5.26,0,0,1,3.22,1,4.19,4.19,0,0,1,1.64,2.77l.11.77v4.85h5.84V137Zm8.09-6.19a4.61,4.61,0,0,0-.09-1,2.39,2.39,0,0,0-1.09-1.59,3.72,3.72,0,0,0-3.86,0,2.4,2.4,0,0,0-1.1,1.59,4.88,4.88,0,0,0-.09,1v4.24h6.23Zm1.27-.09-.59-1.95,7-3.42v2.26Z"/><path d="M21.57,114.38v-2.72l15.79-5.29v2l-14.65,4.94v-.62l14.65,4.89v2Zm10.26,2.74v-8.2h1.84v8.2Z"/><path d="M21.57,104.4V98.15A7.09,7.09,0,0,1,21.66,97a4.28,4.28,0,0,1,1.62-2.89,5.23,5.23,0,0,1,3.27-1,5.26,5.26,0,0,1,3.22,1,4.19,4.19,0,0,1,1.64,2.77l.11.77v4.85h5.84v2Zm8.09-6.19a4.67,4.67,0,0,0-.09-1,2.41,2.41,0,0,0-1.09-1.59,3.72,3.72,0,0,0-3.86,0,2.42,2.42,0,0,0-1.1,1.59,4.88,4.88,0,0,0-.09,1v4.24h6.23Zm1.27-.08-.59-2,7-3.42V95Z"/><path d="M21.57,90.34V84.09a7.09,7.09,0,0,1,.09-1.16,4.28,4.28,0,0,1,1.62-2.88,5.23,5.23,0,0,1,3.27-1,5.26,5.26,0,0,1,3.22,1,4.21,4.21,0,0,1,1.64,2.78l.11.76v4.85h5.84v2Zm8.09-6.18a4.78,4.78,0,0,0-.09-1,2.43,2.43,0,0,0-1.09-1.59,3.72,3.72,0,0,0-3.86,0,2.45,2.45,0,0,0-1.1,1.59,4.91,4.91,0,0,0-.09,1v4.23h6.23Zm1.27-.09-.59-1.95,7-3.42V81Z"/><path d="M21.57,72.1V69.38l15.79-5.29v2L22.71,71.07v-.62l14.65,4.89v2Zm10.26,2.74v-8.2h1.84v8.2Z"/><path d="M30.8,59.64,21.57,65V62.69l7-4-7-4V52.36l9.23,5.31h6.56v2Z"/><path d="M37.66,43a5.31,5.31,0,0,1-1,3.14A4.79,4.79,0,0,1,34.11,48l-.55-1.88a2.94,2.94,0,0,0,1.68-1.18,3.39,3.39,0,0,0-.38-4.21,3.37,3.37,0,0,0-2.37-.86,3.26,3.26,0,0,0-2.37.88A3,3,0,0,0,29.2,43a3.43,3.43,0,0,0,.11.82,3.09,3.09,0,0,0,.31.8l-1.56.94-5.29-5.83.66-.26v7.87H21.57V38h1.88l4.76,5-.68,0a5,5,0,0,1,.52-2.72,4.43,4.43,0,0,1,1.8-1.84,5.6,5.6,0,0,1,5.31,0A4.84,4.84,0,0,1,37,40.35,5.28,5.28,0,0,1,37.66,43Z"/><rect class="cls-1" x="0.5" y="0.5" width="58.53" height="229.44"/></g></g></svg>