<svg xmlns="http://www.w3.org/2000/svg" viewBox="0 0 671 113.5"><defs><style>.cls-1,.cls-2,.cls-3{fill:none;}.cls-1{stroke:#4d4d4d;}.cls-1,.cls-2{stroke-miterlimit:10;}.cls-2{stroke:#8cc63f;stroke-width:2px;}</style></defs><g id="Layer_2" data-name="Layer 2"><g id="Layer_3" data-name="Layer 3"><path d="M11.8,91.58V89.29l13.28-4.44v1.71L12.76,90.71v-.52L25.08,94.3V96Zm8.63,2.3V87H22v6.89Z"/><path d="M11.8,83.19V77.94a6.08,6.08,0,0,1,.08-1,3.59,3.59,0,0,1,1.36-2.42A4.36,4.36,0,0,1,16,73.68a4.41,4.41,0,0,1,2.71.82,3.54,3.54,0,0,1,1.38,2.33l.09.65v4.07h4.91v1.64ZM18.61,78a4,4,0,0,0-.08-.83,2,2,0,0,0-.92-1.33,3.14,3.14,0,0,0-3.24,0,2,2,0,0,0-.92,1.33,4.25,4.25,0,0,0-.08.83v3.56h5.24Zm1.07-.07-.5-1.64,5.9-2.88v1.9Z"/><path d="M11.8,71.38V66.12a6.17,6.17,0,0,1,.08-1,3.59,3.59,0,0,1,1.36-2.42A4.42,4.42,0,0,1,16,61.87a4.41,4.41,0,0,1,2.71.82A3.52,3.52,0,0,1,20.08,65l.09.64v4.07h4.91v1.65Zm6.81-5.2a4,4,0,0,0-.08-.83A2,2,0,0,0,17.61,64a3.14,3.14,0,0,0-3.24,0,2,2,0,0,0-.92,1.34,4.1,4.1,0,0,0-.08.83v3.55h5.24Zm1.07-.08-.5-1.64,5.9-2.87v1.9Z"/><path d="M11.8,56V53.75l13.28-4.44V51L12.76,55.17v-.51l12.32,4.11v1.71Zm8.63,2.3V51.45H22v6.89Z"/><path d="M19.56,45.57,11.8,50.05V48.13l5.87-3.39L11.8,41.37V39.45l7.76,4.46h5.52v1.66Z"/><path d="M11.8,31.69V29.41L25.08,25v1.72L12.76,30.83v-.52l12.32,4.11v1.71ZM20.43,34V27.1H22V34Z"/><path d="M13.63,21l1.51,2.49H13.3L11.8,21V19.32H25.08V21Z"/><rect class="cls-1" x="0.5" y="0.5" width="38" height="112.5"/><line class="cls-2" x1="97" y1="21.5" x2="58" y2="21.5"/><rect class="cls-1" x="58" y="0.5" width="62.5" height="17"/><rect class="cls-1" x="117.5" y="20" width="3" height="3"/><rect class="cls-1" x="111.5" y="20" width="3" height="3"/><rect class="cls-1" x="105.5" y="20" width="3" height="3"/><rect class="cls-1" x="99.5" y="20" width="3" height="3"/><line class="cls-2" x1="97" y1="51.5" x2="58" y2="51.5"/><rect class="cls-1" x="58" y="30.5" width="62.5" height="17"/><rect class="cls-1" x="117.5" y="50" width="3" height="3"/><rect class="cls-1" x="111.5" y="50" width="3" height="3"/><rect class="cls-1" x="105.5" y="50" width="3" height="3"/><rect class="cls-1" x="99.5" y="50" width="3" height="3"/><line class="cls-2" x1="97" y1="81.5" x2="58" y2="81.5"/><rect class="cls-1" x="58" y="60.5" width="62.5" height="17"/><rect class="cls-1" x="117.5" y="80" width="3" height="3"/><rect class="cls-1" x="111.5" y="80" width="3" height="3"/><rect class="cls-1" x="105.5" y="80" width="3" height="3"/><rect class="cls-1" x="99.5" y="80" width="3" height="3"/><line class="cls-2" x1="97" y1="111.5" x2="58" y2="111.5"/><rect class="cls-1" x="58" y="90.5" width="62.5" height="17"/><rect class="cls-1" x="117.5" y="110" width="3" height="3"/><rect class="cls-1" x="111.5" y="110" width="3" height="3"/><rect class="cls-1" x="105.5" y="110" width="3" height="3"/><rect class="cls-1" x="99.5" y="110" width="3" height="3"/><line class="cls-2" x1="167" y1="21.5" x2="128" y2="21.5"/><rect class="cls-1" x="128" y="0.5" width="62.5" height="17"/><rect class="cls-1" x="187.5" y="20" width="3" height="3"/><rect class="cls-1" x="181.5" y="20" width="3" height="3"/><rect class="cls-1" x="175.5" y="20" width="3" height="3"/><rect class="cls-1" x="169.5" y="20" width="3" height="3"/><line class="cls-2" x1="167" y1="51.5" x2="128" y2="51.5"/><rect class="cls-1" x="128" y="30.5" width="62.5" height="17"/><rect class="cls-1" x="187.5" y="50" width="3" height="3"/><rect class="cls-1" x="181.5" y="50" width="3" height="3"/><rect class="cls-1" x="175.5" y="50" width="3" height="3"/><rect class="cls-1" x="169.5" y="50" width="3" height="3"/><line class="cls-2" x1="167" y1="81.5" x2="128" y2="81.5"/><rect class="cls-1" x="128" y="60.5" width="62.5" height="17"/><rect class="cls-1" x="187.5" y="80" width="3" height="3"/><rect class="cls-1" x="181.5" y="80" width="3" height="3"/><rect class="cls-1" x="175.5" y="80" width="3" height="3"/><rect class="cls-1" x="169.5" y="80" width="3" height="3"/><line class="cls-2" x1="167" y1="111.5" x2="128" y2="111.5"/><rect class="cls-1" x="128" y="90.5" width="62.5" height="17"/><rect class="cls-1" x="187.5" y="110" width="3" height="3"/><rect class="cls-1" x="181.5" y="110" width="3" height="3"/><rect class="cls-1" x="175.5" y="110" width="3" height="3"/><rect class="cls-1" x="169.5" y="110" width="3" height="3"/><line class="cls-2" x1="257" y1="21.5" x2="218" y2="21.5"/><rect class="cls-1" x="218" y="0.5" width="62.5" height="17"/><rect class="cls-1" x="277.5" y="20" width="3" height="3"/><rect class="cls-1" x="271.5" y="20" width="3" height="3"/><rect class="cls-1" x="265.5" y="20" width="3" height="3"/><rect class="cls-1" x="259.5" y="20" width="3" height="3"/><line class="cls-2" x1="257" y1="51.5" x2="218" y2="51.5"/><rect class="cls-1" x="218" y="30.5" width="62.5" height="17"/><rect class="cls-1" x="277.5" y="50" width="3" height="3"/><rect class="cls-1" x="271.5" y="50" width="3" height="3"/><rect class="cls-1" x="265.5" y="50" width="3" height="3"/><rect class="cls-1" x="259.5" y="50" width="3" height="3"/><line class="cls-2" x1="257" y1="81.5" x2="218" y2="81.5"/><rect class="cls-1" x="218" y="60.5" width="62.5" height="17"/><rect class="cls-1" x="277.5" y="80" width="3" height="3"/><rect class="cls-1" x="271.5" y="80" width="3" height="3"/><rect class="cls-1" x="265.5" y="80" width="3" height="3"/><rect class="cls-1" x="259.5" y="80" width="3" height="3"/><line class="cls-2" x1="257" y1="111.5" x2="218" y2="111.5"/><rect class="cls-1" x="218" y="90.5" width="62.5" height="17"/><rect class="cls-1" x="277.5" y="110" width="3" height="3"/><rect class="cls-1" x="271.5" y="110" width="3" height="3"/><rect class="cls-1" x="265.5" y="110" width="3" height="3"/><rect class="cls-1" x="259.5" y="110" width="3" height="3"/><line class="cls-2" x1="327" y1="21.5" x2="288" y2="21.5"/><rect class="cls-1" x="288" y="0.5" width="62.5" height="17"/><rect class="cls-1" x="347.5" y="20" width="3" height="3"/><rect class="cls-1" x="341.5" y="20" width="3" height="3"/><rect class="cls-1" x="335.5" y="20" width="3" height="3"/><rect class="cls-1" x="329.5" y="20" width="3" height="3"/><line class="cls-2" x1="327" y1="51.5" x2="288" y2="51.5"/><rect class="cls-1" x="288" y="30.5" width="62.5" height="17"/><rect class="cls-1" x="347.5" y="50" width="3" height="3"/><rect class="cls-1" x="341.5" y="50" width="3" height="3"/><rect class="cls-1" x="335.5" y="50" width="3" height="3"/><rect class="cls-1" x="329.5" y="50" width="3" height="3"/><line class="cls-2" x1="327" y1="81.5" x2="288" y2="81.5"/><rect class="cls-1" x="288" y="60.5" width="62.5" height="17"/><rect class="cls-1" x="347.5" y="80" width="3" height="3"/><rect class="cls-1" x="341.5" y="80" width="3" height="3"/><rect class="cls-1" x="335.5" y="80" width="3" height="3"/><rect class="cls-1" x="329.5" y="80" width="3" height="3"/><line class="cls-2" x1="327" y1="111.5" x2="288" y2="111.5"/><rect class="cls-1" x="288" y="90.5" width="62.5" height="17"/><rect class="cls-1" x="347.5" y="110" width="3" height="3"/><rect class="cls-1" x="341.5" y="110" width="3" height="3"/><rect class="cls-1" x="335.5" y="110" width="3" height="3"/><rect class="cls-1" x="329.5" y="110" width="3" height="3"/><line class="cls-2" x1="417" y1="21.5" x2="378" y2="21.5"/><rect class="cls-1" x="378" y="0.5" width="62.5" height="17"/><rect class="cls-1" x="437.5" y="20" width="3" height="3"/><rect class="cls-1" x="431.5" y="20" width="3" height="3"/><rect class="cls-1" x="425.5" y="20" width="3" height="3"/><rect class="cls-1" x="419.5" y="20" width="3" height="3"/><line class="cls-2" x1="417" y1="51.5" x2="378" y2="51.5"/><rect class="cls-1" x="378" y="30.5" width="62.5" height="17"/><rect class="cls-1" x="437.5" y="50" width="3" height="3"/><rect class="cls-1" x="431.5" y="50" width="3" height="3"/><rect class="cls-1" x="425.5" y="50" width="3" height="3"/><rect class="cls-1" x="419.5" y="50" width="3" height="3"/><line class="cls-2" x1="417" y1="81.5" x2="378" y2="81.5"/><rect class="cls-1" x="378" y="60.5" width="62.5" height="17"/><rect class="cls-1" x="437.5" y="80" width="3" height="3"/><rect class="cls-1" x="431.5" y="80" width="3" height="3"/><rect class="cls-1" x="425.5" y="80" width="3" height="3"/><rect class="cls-1" x="419.5" y="80" width="3" height="3"/><line class="cls-2" x1="417" y1="111.5" x2="378" y2="111.5"/><rect class="cls-1" x="378" y="90.5" width="62.5" height="17"/><rect class="cls-1" x="437.5" y="110" width="3" height="3"/><rect class="cls-1" x="431.5" y="110" width="3" height="3"/><rect class="cls-1" x="425.5" y="110" width="3" height="3"/><rect class="cls-1" x="419.5" y="110" width="3" height="3"/><line class="cls-2" x1="487" y1="21.5" x2="448" y2="21.5"/><rect class="cls-1" x="448" y="0.5" width="62.5" height="17"/><rect class="cls-1" x="507.5" y="20" width="3" height="3"/><rect class="cls-1" x="501.5" y="20" width="3" height="3"/><rect class="cls-1" x="495.5" y="20" width="3" height="3"/><rect class="cls-1" x="489.5" y="20" width="3" height="3"/><line class="cls-2" x1="487" y1="51.5" x2="448" y2="51.5"/><rect class="cls-1" x="448" y="30.5" width="62.5" height="17"/><rect class="cls-1" x="507.5" y="50" width="3" height="3"/><rect class="cls-1" x="501.5" y="50" width="3" height="3"/><rect class="cls-1" x="495.5" y="50" width="3" height="3"/><rect class="cls-1" x="489.5" y="50" width="3" height="3"/><line class="cls-2" x1="487" y1="81.5" x2="448" y2="81.5"/><rect class="cls-1" x="448" y="60.5" width="62.5" height="17"/><rect class="cls-1" x="507.5" y="80" width="3" height="3"/><rect class="cls-1" x="501.5" y="80" width="3" height="3"/><rect class="cls-1" x="495.5" y="80" width="3" height="3"/><rect class="cls-1" x="489.5" y="80" width="3" height="3"/><line class="cls-2" x1="487" y1="111.5" x2="448" y2="111.5"/><rect class="cls-1" x="448" y="90.5" width="62.5" height="17"/><rect class="cls-1" x="507.5" y="110" width="3" height="3"/><rect class="cls-1" x="501.5" y="110" width="3" height="3"/><rect class="cls-1" x="495.5" y="110" width="3" height="3"/><rect class="cls-1" x="489.5" y="110" width="3" height="3"/><line class="cls-2" x1="577" y1="21.5" x2="538" y2="21.5"/><rect class="cls-1" x="538" y="0.5" width="62.5" height="17"/><rect class="cls-1" x="597.5" y="20" width="3" height="3"/><rect class="cls-1" x="591.5" y="20" width="3" height="3"/><rect class="cls-1" x="585.5" y="20" width="3" height="3"/><rect class="cls-1" x="579.5" y="20" width="3" height="3"/><line class="cls-2" x1="577" y1="51.5" x2="538" y2="51.5"/><rect class="cls-1" x="538" y="30.5" width="62.5" height="17"/><rect class="cls-1" x="597.5" y="50" width="3" height="3"/><rect class="cls-1" x="591.5" y="50" width="3" height="3"/><rect class="cls-1" x="585.5" y="50" width="3" height="3"/><rect class="cls-1" x="579.5" y="50" width="3" height="3"/><line class="cls-2" x1="577" y1="81.5" x2="538" y2="81.5"/><rect class="cls-1" x="538" y="60.5" width="62.5" height="17"/><rect class="cls-1" x="597.5" y="80" width="3" height="3"/><rect class="cls-1" x="591.5" y="80" width="3" height="3"/><rect class="cls-1" x="585.5" y="80" width="3" height="3"/><rect class="cls-1" x="579.5" y="80" width="3" height="3"/><line class="cls-2" x1="577" y1="111.5" x2="538" y2="111.5"/><rect class="cls-1" x="538" y="90.5" width="62.5" height="17"/><rect class="cls-1" x="597.5" y="110" width="3" height="3"/><rect class="cls-1" x="591.5" y="110" width="3" height="3"/><rect class="cls-1" x="585.5" y="110" width="3" height="3"/><rect class="cls-1" x="579.5" y="110" width="3" height="3"/><line class="cls-2" x1="647" y1="21.5" x2="608" y2="21.5"/><rect class="cls-1" x="608" y="0.5" width="62.5" height="17"/><rect class="cls-1" x="667.5" y="20" width="3" height="3"/><rect class="cls-1" x="661.5" y="20" width="3" height="3"/><rect class="cls-1" x="655.5" y="20" width="3" height="3"/><rect class="cls-1" x="649.5" y="20" width="3" height="3"/><line class="cls-2" x1="647" y1="51.5" x2="608" y2="51.5"/><rect class="cls-1" x="608" y="30.5" width="62.5" height="17"/><rect class="cls-1" x="667.5" y="50" width="3" height="3"/><rect class="cls-1" x="661.5" y="50" width="3" height="3"/><rect class="cls-1" x="655.5" y="50" width="3" height="3"/><rect class="cls-1" x="649.5" y="50" width="3" height="3"/><line class="cls-2" x1="647" y1="81.5" x2="608" y2="81.5"/><rect class="cls-1" x="608" y="60.5" width="62.5" height="17"/><rect class="cls-1" x="667.5" y="80" width="3" height="3"/><rect class="cls-1" x="661.5" y="80" width="3" height="3"/><rect class="cls-1" x="655.5" y="80" width="3" height="3"/><rect class="cls-1" x="649.5" y="80" width="3" height="3"/><line class="cls-2" x1="647" y1="111.5" x2="608" y2="111.5"/><rect class="cls-1" x="608" y="90.5" width="62.5" height="17"/><rect class="cls-1" x="667.5" y="110" width="3" height="3"/><rect class="cls-1" x="661.5" y="110" width="3" height="3"/><rect class="cls-1" x="655.5" y="110" width="3" height="3"/><rect class="cls-1" x="649.5" y="110" width="3" height="3"/><rect class="cls-3" width="671" height="113.5"/></g></g></svg>