<svg xmlns="http://www.w3.org/2000/svg" viewBox="0 0 650 700"><defs><style>.cls-1{fill:#bfbfbf;}.cls-2{fill:none;}</style></defs><g id="Layer_2" data-name="Layer 2"><g id="Layer_2-2" data-name="Layer 2"><polygon class="cls-1" points="336.91 414.81 318.48 446.72 304.47 446.72 322.89 414.81 336.91 414.81"/><polygon class="cls-1" points="455.07 414.81 416.55 481.54 406.55 481.54 445.07 414.81 455.07 414.81"/><polygon class="cls-1" points="326.79 481.54 288.26 548.27 273.92 548.27 312.45 481.54 326.79 481.54"/><polygon class="cls-1" points="360.24 333.18 397.09 333.19 404.1 345.32 367.25 345.32 360.24 333.18"/><polygon class="cls-1" points="301.16 230.85 378.21 230.85 383.21 239.51 306.16 239.51 301.16 230.85"/><polygon class="cls-1" points="423.09 308.58 500.14 308.58 507.31 321 430.26 321 423.09 308.58"/><polygon class="cls-1" points="277.9 353.8 259.48 321.88 266.48 309.75 284.91 341.65 277.9 353.8"/><polygon class="cls-1" points="218.82 456.13 180.29 389.4 185.29 380.74 223.82 447.46 218.82 456.13"/><polygon class="cls-1" points="225.17 311.67 186.64 244.93 193.81 232.51 232.34 299.25 225.17 311.67"/><rect class="cls-2" width="650" height="700"/></g></g></svg>