<svg xmlns="http://www.w3.org/2000/svg" viewBox="0 0 650 700"><defs><style>.cls-1{fill:#bfbfbf;}.cls-2{fill:none;}</style></defs><g id="Layer_2" data-name="Layer 2"><g id="Layer_2-2" data-name="Layer 2"><polygon class="cls-1" points="507.92 481.54 469.39 548.27 398.02 548.27 436.55 481.54 507.92 481.54"/><polygon class="cls-1" points="445.07 414.81 406.55 481.54 396.55 481.54 435.07 414.81 445.07 414.81"/><polygon class="cls-1" points="332.52 151.72 409.58 151.72 445.26 213.53 368.21 213.53 332.52 151.72"/><polygon class="cls-1" points="306.16 239.51 383.21 239.51 388.21 248.17 311.16 248.17 306.16 239.51"/><polygon class="cls-1" points="134.6 468.53 96.08 401.8 131.76 339.99 170.29 406.72 134.6 468.53"/><polygon class="cls-1" points="223.82 447.46 185.29 380.74 190.29 372.08 228.82 438.81 223.82 447.46"/><rect class="cls-2" width="650" height="700"/></g></g></svg>