<svg xmlns="http://www.w3.org/2000/svg" viewBox="0 0 650 700"><defs><style>.cls-1{fill:#bfbfbf;}.cls-2{fill:none;}</style></defs><g id="Layer_2" data-name="Layer 2"><g id="Layer_2-2" data-name="Layer 2"><polygon class="cls-1" points="546.44 414.81 507.92 481.54 436.55 481.54 475.07 414.81 546.44 414.81"/><polygon class="cls-1" points="322.89 414.81 304.47 446.72 284.37 481.54 256.63 481.54 295.15 414.81 322.89 414.81"/><polygon class="cls-1" points="406.55 481.54 368.02 548.27 358.02 548.27 396.55 481.54 406.55 481.54"/><polygon class="cls-1" points="255.47 151.72 332.52 151.72 368.21 213.53 291.16 213.53 255.47 151.72"/><polygon class="cls-1" points="367.25 345.32 404.1 345.32 444.3 345.32 458.17 369.34 381.12 369.35 367.25 345.32"/><polygon class="cls-1" points="383.21 239.51 460.26 239.51 465.26 248.17 388.21 248.17 383.21 239.51"/><polygon class="cls-1" points="173.13 535.25 134.6 468.53 170.29 406.72 208.82 473.45 173.13 535.25"/><polygon class="cls-1" points="284.91 341.65 266.48 309.75 246.38 274.93 260.25 250.91 298.78 317.63 284.91 341.65"/><polygon class="cls-1" points="185.29 380.74 146.76 314.01 151.76 305.35 190.29 372.08 185.29 380.74"/><rect class="cls-2" width="650" height="700"/></g></g></svg>