<svg xmlns="http://www.w3.org/2000/svg" viewBox="0 0 650 700"><defs><style>.cls-1{fill:#bfbfbf;}.cls-2{fill:none;}</style></defs><g id="Layer_2" data-name="Layer 2"><g id="Layer_2-2" data-name="Layer 2"><polygon class="cls-1" points="295.15 414.81 256.63 481.54 218.1 548.27 180.61 548.27 257.67 414.81 295.15 414.81"/><polygon class="cls-1" points="465.07 414.81 426.55 481.54 416.55 481.54 455.07 414.81 465.07 414.81"/><polygon class="cls-1" points="332.55 446.72 312.45 481.54 298.38 481.54 318.48 446.72 332.55 446.72"/><polygon class="cls-1" points="381.12 369.35 458.17 369.34 535.23 369.35 553.97 401.81 399.86 401.81 381.12 369.35"/><polygon class="cls-1" points="296.16 222.19 373.21 222.19 378.21 230.85 301.16 230.85 296.16 222.19"/><polygon class="cls-1" points="390.06 321 430.26 321 437.3 333.19 397.09 333.19 390.06 321"/><polygon class="cls-1" points="298.78 317.63 260.25 250.91 221.72 184.17 240.47 151.71 317.52 285.17 298.78 317.63"/><polygon class="cls-1" points="213.82 464.79 175.29 398.06 180.29 389.4 218.82 456.13 213.82 464.79"/><polygon class="cls-1" points="252.44 334.06 232.34 299.25 239.37 287.06 259.48 321.88 252.44 334.06"/><rect class="cls-2" width="650" height="700"/></g></g></svg>