<svg xmlns="http://www.w3.org/2000/svg" viewBox="0 0 671 113.5"><defs><style>.cls-1,.cls-2,.cls-3{fill:none;}.cls-1{stroke:#4d4d4d;}.cls-1,.cls-2{stroke-miterlimit:10;}.cls-2{stroke:#8cc63f;stroke-width:2px;}</style></defs><g id="Layer_2" data-name="Layer 2"><g id="Layer_3" data-name="Layer 3"><path d="M11.8,93V90.74L25.08,86.3V88L12.76,92.16v-.52l12.32,4.11v1.72Zm8.63,2.31v-6.9H22v6.9Z"/><path d="M11.8,84.64V79.38a6,6,0,0,1,.08-1A3.59,3.59,0,0,1,13.24,76,4.42,4.42,0,0,1,16,75.13,4.41,4.41,0,0,1,18.7,76a3.52,3.52,0,0,1,1.38,2.33l.09.64V83h4.91v1.64Zm6.81-5.2a4,4,0,0,0-.08-.83,2,2,0,0,0-.92-1.34,3.14,3.14,0,0,0-3.24,0,2,2,0,0,0-.92,1.34,4.17,4.17,0,0,0-.08.83V83h5.24Zm1.07-.07-.5-1.65,5.9-2.87v1.9Z"/><path d="M11.8,72.82V67.57a6.17,6.17,0,0,1,.08-1,3.59,3.59,0,0,1,1.36-2.42A4.42,4.42,0,0,1,16,63.31a4.47,4.47,0,0,1,2.71.82,3.57,3.57,0,0,1,1.38,2.33l.09.65v4.07h4.91v1.64Zm6.81-5.2a4,4,0,0,0-.08-.83,2,2,0,0,0-.92-1.33,3.14,3.14,0,0,0-3.24,0,2,2,0,0,0-.92,1.33,4.25,4.25,0,0,0-.08.83v3.56h5.24Zm1.07-.07-.5-1.64L25.08,63v1.89Z"/><path d="M11.8,57.49V55.2l13.28-4.44v1.71L12.76,56.62v-.51l12.32,4.1v1.72Zm8.63,2.3V52.9H22v6.89Z"/><path d="M19.56,47,11.8,51.5V49.58l5.87-3.39L11.8,42.82V40.9l7.76,4.46h5.52V47Z"/><path d="M11.8,33.14V30.85l13.28-4.44v1.71L12.76,32.27v-.51l12.32,4.11v1.71Zm8.63,2.3V28.55H22v6.89Z"/><path d="M25.33,21.1a4.44,4.44,0,0,1-.81,2.64,4.11,4.11,0,0,1-2.17,1.57l-.46-1.59a2.51,2.51,0,0,0,1.41-1,2.72,2.72,0,0,0,.47-1.61A2.54,2.54,0,0,0,23,19.2a2.76,2.76,0,0,0-2-.73,2.74,2.74,0,0,0-2,.74,2.55,2.55,0,0,0-.77,1.93,2.84,2.84,0,0,0,.09.69,3,3,0,0,0,.26.67l-1.31.8-4.44-4.91.55-.22v6.62H11.8V17h1.59l4,4.18-.57,0a4.21,4.21,0,0,1,.43-2.29,3.73,3.73,0,0,1,1.51-1.54,4.7,4.7,0,0,1,4.47,0,4,4,0,0,1,1.55,1.56A4.41,4.41,0,0,1,25.33,21.1Z"/><rect class="cls-1" x="0.5" y="0.5" width="38" height="112.5"/><line class="cls-2" x1="97" y1="21.5" x2="58" y2="21.5"/><rect class="cls-1" x="58" y="0.5" width="62.5" height="17"/><rect class="cls-1" x="117.5" y="20" width="3" height="3"/><rect class="cls-1" x="111.5" y="20" width="3" height="3"/><rect class="cls-1" x="105.5" y="20" width="3" height="3"/><rect class="cls-1" x="99.5" y="20" width="3" height="3"/><line class="cls-2" x1="97" y1="51.5" x2="58" y2="51.5"/><rect class="cls-1" x="58" y="30.5" width="62.5" height="17"/><rect class="cls-1" x="117.5" y="50" width="3" height="3"/><rect class="cls-1" x="111.5" y="50" width="3" height="3"/><rect class="cls-1" x="105.5" y="50" width="3" height="3"/><rect class="cls-1" x="99.5" y="50" width="3" height="3"/><line class="cls-2" x1="97" y1="81.5" x2="58" y2="81.5"/><rect class="cls-1" x="58" y="60.5" width="62.5" height="17"/><rect class="cls-1" x="117.5" y="80" width="3" height="3"/><rect class="cls-1" x="111.5" y="80" width="3" height="3"/><rect class="cls-1" x="105.5" y="80" width="3" height="3"/><rect class="cls-1" x="99.5" y="80" width="3" height="3"/><line class="cls-2" x1="97" y1="111.5" x2="58" y2="111.5"/><rect class="cls-1" x="58" y="90.5" width="62.5" height="17"/><rect class="cls-1" x="117.5" y="110" width="3" height="3"/><rect class="cls-1" x="111.5" y="110" width="3" height="3"/><rect class="cls-1" x="105.5" y="110" width="3" height="3"/><rect class="cls-1" x="99.5" y="110" width="3" height="3"/><line class="cls-2" x1="167" y1="21.5" x2="128" y2="21.5"/><rect class="cls-1" x="128" y="0.5" width="62.5" height="17"/><rect class="cls-1" x="187.5" y="20" width="3" height="3"/><rect class="cls-1" x="181.5" y="20" width="3" height="3"/><rect class="cls-1" x="175.5" y="20" width="3" height="3"/><rect class="cls-1" x="169.5" y="20" width="3" height="3"/><line class="cls-2" x1="167" y1="51.5" x2="128" y2="51.5"/><rect class="cls-1" x="128" y="30.5" width="62.5" height="17"/><rect class="cls-1" x="187.5" y="50" width="3" height="3"/><rect class="cls-1" x="181.5" y="50" width="3" height="3"/><rect class="cls-1" x="175.5" y="50" width="3" height="3"/><rect class="cls-1" x="169.5" y="50" width="3" height="3"/><line class="cls-2" x1="167" y1="81.5" x2="128" y2="81.5"/><rect class="cls-1" x="128" y="60.5" width="62.5" height="17"/><rect class="cls-1" x="187.5" y="80" width="3" height="3"/><rect class="cls-1" x="181.5" y="80" width="3" height="3"/><rect class="cls-1" x="175.5" y="80" width="3" height="3"/><rect class="cls-1" x="169.5" y="80" width="3" height="3"/><line class="cls-2" x1="167" y1="111.5" x2="128" y2="111.5"/><rect class="cls-1" x="128" y="90.5" width="62.5" height="17"/><rect class="cls-1" x="187.5" y="110" width="3" height="3"/><rect class="cls-1" x="181.5" y="110" width="3" height="3"/><rect class="cls-1" x="175.5" y="110" width="3" height="3"/><rect class="cls-1" x="169.5" y="110" width="3" height="3"/><line class="cls-2" x1="257" y1="21.5" x2="218" y2="21.5"/><rect class="cls-1" x="218" y="0.5" width="62.5" height="17"/><rect class="cls-1" x="277.5" y="20" width="3" height="3"/><rect class="cls-1" x="271.5" y="20" width="3" height="3"/><rect class="cls-1" x="265.5" y="20" width="3" height="3"/><rect class="cls-1" x="259.5" y="20" width="3" height="3"/><line class="cls-2" x1="257" y1="51.5" x2="218" y2="51.5"/><rect class="cls-1" x="218" y="30.5" width="62.5" height="17"/><rect class="cls-1" x="277.5" y="50" width="3" height="3"/><rect class="cls-1" x="271.5" y="50" width="3" height="3"/><rect class="cls-1" x="265.5" y="50" width="3" height="3"/><rect class="cls-1" x="259.5" y="50" width="3" height="3"/><line class="cls-2" x1="257" y1="81.5" x2="218" y2="81.5"/><rect class="cls-1" x="218" y="60.5" width="62.5" height="17"/><rect class="cls-1" x="277.5" y="80" width="3" height="3"/><rect class="cls-1" x="271.5" y="80" width="3" height="3"/><rect class="cls-1" x="265.5" y="80" width="3" height="3"/><rect class="cls-1" x="259.5" y="80" width="3" height="3"/><line class="cls-2" x1="257" y1="111.5" x2="218" y2="111.5"/><rect class="cls-1" x="218" y="90.5" width="62.5" height="17"/><rect class="cls-1" x="277.5" y="110" width="3" height="3"/><rect class="cls-1" x="271.5" y="110" width="3" height="3"/><rect class="cls-1" x="265.5" y="110" width="3" height="3"/><rect class="cls-1" x="259.5" y="110" width="3" height="3"/><line class="cls-2" x1="327" y1="21.5" x2="288" y2="21.5"/><rect class="cls-1" x="288" y="0.5" width="62.5" height="17"/><rect class="cls-1" x="347.5" y="20" width="3" height="3"/><rect class="cls-1" x="341.5" y="20" width="3" height="3"/><rect class="cls-1" x="335.5" y="20" width="3" height="3"/><rect class="cls-1" x="329.5" y="20" width="3" height="3"/><line class="cls-2" x1="327" y1="51.5" x2="288" y2="51.5"/><rect class="cls-1" x="288" y="30.5" width="62.5" height="17"/><rect class="cls-1" x="347.5" y="50" width="3" height="3"/><rect class="cls-1" x="341.5" y="50" width="3" height="3"/><rect class="cls-1" x="335.5" y="50" width="3" height="3"/><rect class="cls-1" x="329.5" y="50" width="3" height="3"/><line class="cls-2" x1="327" y1="81.5" x2="288" y2="81.5"/><rect class="cls-1" x="288" y="60.5" width="62.5" height="17"/><rect class="cls-1" x="347.5" y="80" width="3" height="3"/><rect class="cls-1" x="341.5" y="80" width="3" height="3"/><rect class="cls-1" x="335.5" y="80" width="3" height="3"/><rect class="cls-1" x="329.5" y="80" width="3" height="3"/><line class="cls-2" x1="327" y1="111.5" x2="288" y2="111.5"/><rect class="cls-1" x="288" y="90.5" width="62.5" height="17"/><rect class="cls-1" x="347.5" y="110" width="3" height="3"/><rect class="cls-1" x="341.5" y="110" width="3" height="3"/><rect class="cls-1" x="335.5" y="110" width="3" height="3"/><rect class="cls-1" x="329.5" y="110" width="3" height="3"/><line class="cls-2" x1="417" y1="21.5" x2="378" y2="21.5"/><rect class="cls-1" x="378" y="0.5" width="62.5" height="17"/><rect class="cls-1" x="437.5" y="20" width="3" height="3"/><rect class="cls-1" x="431.5" y="20" width="3" height="3"/><rect class="cls-1" x="425.5" y="20" width="3" height="3"/><rect class="cls-1" x="419.5" y="20" width="3" height="3"/><line class="cls-2" x1="417" y1="51.5" x2="378" y2="51.5"/><rect class="cls-1" x="378" y="30.5" width="62.5" height="17"/><rect class="cls-1" x="437.5" y="50" width="3" height="3"/><rect class="cls-1" x="431.5" y="50" width="3" height="3"/><rect class="cls-1" x="425.5" y="50" width="3" height="3"/><rect class="cls-1" x="419.5" y="50" width="3" height="3"/><line class="cls-2" x1="417" y1="81.5" x2="378" y2="81.5"/><rect class="cls-1" x="378" y="60.5" width="62.5" height="17"/><rect class="cls-1" x="437.5" y="80" width="3" height="3"/><rect class="cls-1" x="431.5" y="80" width="3" height="3"/><rect class="cls-1" x="425.5" y="80" width="3" height="3"/><rect class="cls-1" x="419.5" y="80" width="3" height="3"/><line class="cls-2" x1="417" y1="111.5" x2="378" y2="111.5"/><rect class="cls-1" x="378" y="90.5" width="62.5" height="17"/><rect class="cls-1" x="437.5" y="110" width="3" height="3"/><rect class="cls-1" x="431.5" y="110" width="3" height="3"/><rect class="cls-1" x="425.5" y="110" width="3" height="3"/><rect class="cls-1" x="419.5" y="110" width="3" height="3"/><line class="cls-2" x1="487" y1="21.5" x2="448" y2="21.5"/><rect class="cls-1" x="448" y="0.5" width="62.5" height="17"/><rect class="cls-1" x="507.5" y="20" width="3" height="3"/><rect class="cls-1" x="501.5" y="20" width="3" height="3"/><rect class="cls-1" x="495.5" y="20" width="3" height="3"/><rect class="cls-1" x="489.5" y="20" width="3" height="3"/><line class="cls-2" x1="487" y1="51.5" x2="448" y2="51.5"/><rect class="cls-1" x="448" y="30.5" width="62.5" height="17"/><rect class="cls-1" x="507.5" y="50" width="3" height="3"/><rect class="cls-1" x="501.5" y="50" width="3" height="3"/><rect class="cls-1" x="495.5" y="50" width="3" height="3"/><rect class="cls-1" x="489.5" y="50" width="3" height="3"/><line class="cls-2" x1="487" y1="81.5" x2="448" y2="81.5"/><rect class="cls-1" x="448" y="60.5" width="62.5" height="17"/><rect class="cls-1" x="507.5" y="80" width="3" height="3"/><rect class="cls-1" x="501.5" y="80" width="3" height="3"/><rect class="cls-1" x="495.5" y="80" width="3" height="3"/><rect class="cls-1" x="489.5" y="80" width="3" height="3"/><line class="cls-2" x1="487" y1="111.5" x2="448" y2="111.5"/><rect class="cls-1" x="448" y="90.5" width="62.5" height="17"/><rect class="cls-1" x="507.5" y="110" width="3" height="3"/><rect class="cls-1" x="501.5" y="110" width="3" height="3"/><rect class="cls-1" x="495.5" y="110" width="3" height="3"/><rect class="cls-1" x="489.5" y="110" width="3" height="3"/><line class="cls-2" x1="577" y1="21.5" x2="538" y2="21.5"/><rect class="cls-1" x="538" y="0.5" width="62.5" height="17"/><rect class="cls-1" x="597.5" y="20" width="3" height="3"/><rect class="cls-1" x="591.5" y="20" width="3" height="3"/><rect class="cls-1" x="585.5" y="20" width="3" height="3"/><rect class="cls-1" x="579.5" y="20" width="3" height="3"/><line class="cls-2" x1="577" y1="51.5" x2="538" y2="51.5"/><rect class="cls-1" x="538" y="30.5" width="62.5" height="17"/><rect class="cls-1" x="597.5" y="50" width="3" height="3"/><rect class="cls-1" x="591.5" y="50" width="3" height="3"/><rect class="cls-1" x="585.5" y="50" width="3" height="3"/><rect class="cls-1" x="579.5" y="50" width="3" height="3"/><line class="cls-2" x1="577" y1="81.5" x2="538" y2="81.5"/><rect class="cls-1" x="538" y="60.5" width="62.5" height="17"/><rect class="cls-1" x="597.5" y="80" width="3" height="3"/><rect class="cls-1" x="591.5" y="80" width="3" height="3"/><rect class="cls-1" x="585.5" y="80" width="3" height="3"/><rect class="cls-1" x="579.5" y="80" width="3" height="3"/><line class="cls-2" x1="577" y1="111.5" x2="538" y2="111.5"/><rect class="cls-1" x="538" y="90.5" width="62.5" height="17"/><rect class="cls-1" x="597.5" y="110" width="3" height="3"/><rect class="cls-1" x="591.5" y="110" width="3" height="3"/><rect class="cls-1" x="585.5" y="110" width="3" height="3"/><rect class="cls-1" x="579.5" y="110" width="3" height="3"/><line class="cls-2" x1="647" y1="21.5" x2="608" y2="21.5"/><rect class="cls-1" x="608" y="0.5" width="62.5" height="17"/><rect class="cls-1" x="667.5" y="20" width="3" height="3"/><rect class="cls-1" x="661.5" y="20" width="3" height="3"/><rect class="cls-1" x="655.5" y="20" width="3" height="3"/><rect class="cls-1" x="649.5" y="20" width="3" height="3"/><line class="cls-2" x1="647" y1="51.5" x2="608" y2="51.5"/><rect class="cls-1" x="608" y="30.5" width="62.5" height="17"/><rect class="cls-1" x="667.5" y="50" width="3" height="3"/><rect class="cls-1" x="661.5" y="50" width="3" height="3"/><rect class="cls-1" x="655.5" y="50" width="3" height="3"/><rect class="cls-1" x="649.5" y="50" width="3" height="3"/><line class="cls-2" x1="647" y1="81.5" x2="608" y2="81.5"/><rect class="cls-1" x="608" y="60.5" width="62.5" height="17"/><rect class="cls-1" x="667.5" y="80" width="3" height="3"/><rect class="cls-1" x="661.5" y="80" width="3" height="3"/><rect class="cls-1" x="655.5" y="80" width="3" height="3"/><rect class="cls-1" x="649.5" y="80" width="3" height="3"/><line class="cls-2" x1="647" y1="111.5" x2="608" y2="111.5"/><rect class="cls-1" x="608" y="90.5" width="62.5" height="17"/><rect class="cls-1" x="667.5" y="110" width="3" height="3"/><rect class="cls-1" x="661.5" y="110" width="3" height="3"/><rect class="cls-1" x="655.5" y="110" width="3" height="3"/><rect class="cls-1" x="649.5" y="110" width="3" height="3"/><rect class="cls-3" width="671" height="113.5"/></g></g></svg>