<svg xmlns="http://www.w3.org/2000/svg" viewBox="0 0 59.53 230.44"><defs><style>.cls-1{fill:none;stroke:#4d4d4d;stroke-miterlimit:10;}</style></defs><g id="Layer_2" data-name="Layer 2"><g id="Layer_3" data-name="Layer 3"><path d="M37.69,185.6a7.79,7.79,0,0,1-.57,3,5.59,5.59,0,0,1-1.64,2.22A5.34,5.34,0,0,1,33,192l-.31-2A4,4,0,0,0,35,188.38a4.88,4.88,0,0,0,.84-2.87,4.75,4.75,0,0,0-.74-2.71,2.34,2.34,0,0,0-2-1.08,1.87,1.87,0,0,0-1.47.58,4.13,4.13,0,0,0-.83,1.61l-1.21,4a6.05,6.05,0,0,1-1.35,2.49,3.3,3.3,0,0,1-2.51.93,3.92,3.92,0,0,1-2.37-.73,4.62,4.62,0,0,1-1.54-2,6.9,6.9,0,0,1-.52-2.83,7.07,7.07,0,0,1,.55-2.85,5.35,5.35,0,0,1,1.59-2.09,5.7,5.7,0,0,1,2.47-1.11l.37,2.08A3.6,3.6,0,0,0,24,183.23a4.35,4.35,0,0,0-.87,2.63,4.68,4.68,0,0,0,.32,1.74,3.06,3.06,0,0,0,.89,1.25,2,2,0,0,0,1.29.46,1.64,1.64,0,0,0,1.46-.73,6.23,6.23,0,0,0,.82-1.9l.86-3a12.34,12.34,0,0,1,.7-1.85,4,4,0,0,1,1.25-1.47A3.67,3.67,0,0,1,33,179.7a4.19,4.19,0,0,1,2.54.78,4.9,4.9,0,0,1,1.64,2.13A7.77,7.77,0,0,1,37.69,185.6Z"/><path d="M37.69,170.91a7.47,7.47,0,0,1-1,4,6.6,6.6,0,0,1-2.89,2.53,10,10,0,0,1-4.31.87,10.08,10.08,0,0,1-4.31-.87,6.63,6.63,0,0,1-2.88-2.53,8.19,8.19,0,0,1,0-7.95,6.55,6.55,0,0,1,2.88-2.52,10.08,10.08,0,0,1,4.31-.87,10,10,0,0,1,4.31.87,6.52,6.52,0,0,1,2.89,2.52A7.43,7.43,0,0,1,37.69,170.91Zm-1.87,0A4.71,4.71,0,0,0,34.1,167a7.32,7.32,0,0,0-4.64-1.36A7.26,7.26,0,0,0,24.84,167a4.79,4.79,0,0,0-1.74,3.94,4.68,4.68,0,0,0,1.71,3.91,7.37,7.37,0,0,0,4.65,1.37,8.24,8.24,0,0,0,3.34-.58,4.81,4.81,0,0,0,2.21-1.8A5.18,5.18,0,0,0,35.82,170.91Z"/><path d="M21.57,161.13v-1.95H35.49v-7.33h1.87v9.28Z"/><path d="M21.57,145.8v-2.72l15.79-5.28v2l-14.65,4.94v-.61L37.36,149v2Zm10.26,2.74v-8.2h1.84v8.2Z"/><path d="M21.57,135.82v-6.25a7.09,7.09,0,0,1,.09-1.16,4.28,4.28,0,0,1,1.62-2.88,5.23,5.23,0,0,1,3.27-1,5.26,5.26,0,0,1,3.22,1,4.21,4.21,0,0,1,1.64,2.78l.11.76v4.85h5.84v1.95Zm8.09-6.18a4.78,4.78,0,0,0-.09-1,2.43,2.43,0,0,0-1.09-1.59,3.72,3.72,0,0,0-3.86,0,2.45,2.45,0,0,0-1.1,1.59,4.91,4.91,0,0,0-.09,1v4.23h6.23Zm1.27-.09-.59-2,7-3.42v2.26Z"/><path d="M21.57,113.19v-2.72l15.79-5.28v2l-14.65,4.93v-.61l14.65,4.89v2Zm10.26,2.74v-8.2h1.84v8.2Z"/><path d="M21.57,103.21V97a7.18,7.18,0,0,1,.09-1.16,4.28,4.28,0,0,1,1.62-2.88,5.23,5.23,0,0,1,3.27-1,5.26,5.26,0,0,1,3.22,1,4.21,4.21,0,0,1,1.64,2.78l.11.77v4.84h5.84v1.95ZM29.66,97a4.78,4.78,0,0,0-.09-1,2.43,2.43,0,0,0-1.09-1.59,3.78,3.78,0,0,0-3.86,0A2.45,2.45,0,0,0,23.52,96a4.91,4.91,0,0,0-.09,1v4.23h6.23Zm1.27-.09-.59-2,7-3.42v2.26Z"/><path d="M21.57,89.16V82.91a7.31,7.31,0,0,1,.09-1.17,4.28,4.28,0,0,1,1.62-2.88,5.23,5.23,0,0,1,3.27-1,5.26,5.26,0,0,1,3.22,1,4.19,4.19,0,0,1,1.64,2.77l.11.77v4.85h5.84v2ZM29.66,83a4.61,4.61,0,0,0-.09-1,2.39,2.39,0,0,0-1.09-1.59,3.72,3.72,0,0,0-3.86,0A2.4,2.4,0,0,0,23.52,82a4.88,4.88,0,0,0-.09,1v4.24h6.23Zm1.27-.09-.59-1.95,7-3.42v2.26Z"/><path d="M21.57,70.91V68.19l15.79-5.28v2L22.71,69.88v-.61l14.65,4.89v2Zm10.26,2.74v-8.2h1.84v8.2Z"/><path d="M30.8,58.46l-9.23,5.32V61.5l7-4-7-4V51.17l9.23,5.31h6.56v2Z"/><path d="M23.74,43.39l1.8,3H23.35l-1.78-3v-2H37.36v2Z"/><rect class="cls-1" x="0.5" y="0.5" width="58.53" height="229.44"/></g></g></svg>