<svg xmlns="http://www.w3.org/2000/svg" viewBox="0 0 671 113.5"><defs><style>.cls-1,.cls-2,.cls-3{fill:none;}.cls-1{stroke:#4d4d4d;}.cls-1,.cls-2{stroke-miterlimit:10;}.cls-2{stroke:#8cc63f;stroke-width:2px;}</style></defs><g id="Layer_2" data-name="Layer 2"><g id="Layer_3" data-name="Layer 3"><path d="M11.8,93.17V90.88l13.28-4.44v1.72L12.76,92.3v-.51L25.08,95.9v1.71Zm8.63,2.3V88.58H22v6.89Z"/><path d="M11.8,84.79V79.53a6.17,6.17,0,0,1,.08-1,3.59,3.59,0,0,1,1.36-2.42A4.42,4.42,0,0,1,16,75.27a4.47,4.47,0,0,1,2.71.82,3.57,3.57,0,0,1,1.38,2.34l.09.64v4.07h4.91v1.65Zm6.81-5.2a4,4,0,0,0-.08-.83,2,2,0,0,0-.92-1.34,3.14,3.14,0,0,0-3.24,0,2,2,0,0,0-.92,1.34,4.1,4.1,0,0,0-.08.83v3.55h5.24Zm1.07-.08-.5-1.64L25.08,75v1.9Z"/><path d="M11.8,73V67.72a6.08,6.08,0,0,1,.08-1,3.59,3.59,0,0,1,1.36-2.42A4.36,4.36,0,0,1,16,63.46a4.41,4.41,0,0,1,2.71.82,3.54,3.54,0,0,1,1.38,2.33l.09.65v4.07h4.91V73Zm6.81-5.2a4,4,0,0,0-.08-.83,2,2,0,0,0-.92-1.33,3.08,3.08,0,0,0-3.24,0,2,2,0,0,0-.92,1.33,4.17,4.17,0,0,0-.08.83v3.56h5.24Zm1.07-.07-.5-1.64,5.9-2.88v1.9Z"/><path d="M11.8,57.63V55.35l13.28-4.44v1.71L12.76,56.77v-.52l12.32,4.11v1.72Zm8.63,2.31V53H22v6.9Z"/><path d="M19.56,47.17,11.8,51.64V49.73l5.87-3.39L11.8,43V41.05l7.76,4.46h5.52v1.66Z"/><path d="M11.8,33.29V31l13.28-4.44v1.71L12.76,32.42V31.9L25.08,36v1.72Zm8.63,2.3V28.7H22v6.89Z"/><path d="M23.58,25.27l-5.29-5.9a4.16,4.16,0,0,0-1.21-1,3,3,0,0,0-1.26-.27,2.72,2.72,0,0,0-1.38.35,2.45,2.45,0,0,0-1,1,2.47,2.47,0,0,0-.36,1.34,2.66,2.66,0,0,0,.37,1.4,2.79,2.79,0,0,0,1,1,2.49,2.49,0,0,0,1.33.34v1.69a4.23,4.23,0,0,1-2.2-.58A4.1,4.1,0,0,1,12.07,23a4.76,4.76,0,0,1-.54-2.27,4.32,4.32,0,0,1,.57-2.2A4.17,4.17,0,0,1,13.66,17a4.25,4.25,0,0,1,2.18-.57,4.61,4.61,0,0,1,1.47.21,3.93,3.93,0,0,1,1.12.61,10.16,10.16,0,0,1,1.19,1.15s0,0,0,0,0,0,0,0L24,23.35l-.55.22V16.44h1.57v8.83Z"/><rect class="cls-1" x="0.5" y="0.5" width="38" height="112.5"/><line class="cls-2" x1="97" y1="21.5" x2="58" y2="21.5"/><rect class="cls-1" x="58" y="0.5" width="62.5" height="17"/><rect class="cls-1" x="117.5" y="20" width="3" height="3"/><rect class="cls-1" x="111.5" y="20" width="3" height="3"/><rect class="cls-1" x="105.5" y="20" width="3" height="3"/><rect class="cls-1" x="99.5" y="20" width="3" height="3"/><line class="cls-2" x1="97" y1="51.5" x2="58" y2="51.5"/><rect class="cls-1" x="58" y="30.5" width="62.5" height="17"/><rect class="cls-1" x="117.5" y="50" width="3" height="3"/><rect class="cls-1" x="111.5" y="50" width="3" height="3"/><rect class="cls-1" x="105.5" y="50" width="3" height="3"/><rect class="cls-1" x="99.5" y="50" width="3" height="3"/><line class="cls-2" x1="97" y1="81.5" x2="58" y2="81.5"/><rect class="cls-1" x="58" y="60.5" width="62.5" height="17"/><rect class="cls-1" x="117.5" y="80" width="3" height="3"/><rect class="cls-1" x="111.5" y="80" width="3" height="3"/><rect class="cls-1" x="105.5" y="80" width="3" height="3"/><rect class="cls-1" x="99.5" y="80" width="3" height="3"/><line class="cls-2" x1="97" y1="111.5" x2="58" y2="111.5"/><rect class="cls-1" x="58" y="90.5" width="62.5" height="17"/><rect class="cls-1" x="117.5" y="110" width="3" height="3"/><rect class="cls-1" x="111.5" y="110" width="3" height="3"/><rect class="cls-1" x="105.5" y="110" width="3" height="3"/><rect class="cls-1" x="99.5" y="110" width="3" height="3"/><line class="cls-2" x1="167" y1="21.5" x2="128" y2="21.5"/><rect class="cls-1" x="128" y="0.5" width="62.5" height="17"/><rect class="cls-1" x="187.5" y="20" width="3" height="3"/><rect class="cls-1" x="181.5" y="20" width="3" height="3"/><rect class="cls-1" x="175.5" y="20" width="3" height="3"/><rect class="cls-1" x="169.5" y="20" width="3" height="3"/><line class="cls-2" x1="167" y1="51.5" x2="128" y2="51.5"/><rect class="cls-1" x="128" y="30.5" width="62.5" height="17"/><rect class="cls-1" x="187.5" y="50" width="3" height="3"/><rect class="cls-1" x="181.5" y="50" width="3" height="3"/><rect class="cls-1" x="175.5" y="50" width="3" height="3"/><rect class="cls-1" x="169.5" y="50" width="3" height="3"/><line class="cls-2" x1="167" y1="81.5" x2="128" y2="81.5"/><rect class="cls-1" x="128" y="60.5" width="62.5" height="17"/><rect class="cls-1" x="187.5" y="80" width="3" height="3"/><rect class="cls-1" x="181.5" y="80" width="3" height="3"/><rect class="cls-1" x="175.5" y="80" width="3" height="3"/><rect class="cls-1" x="169.5" y="80" width="3" height="3"/><line class="cls-2" x1="167" y1="111.5" x2="128" y2="111.5"/><rect class="cls-1" x="128" y="90.5" width="62.5" height="17"/><rect class="cls-1" x="187.5" y="110" width="3" height="3"/><rect class="cls-1" x="181.5" y="110" width="3" height="3"/><rect class="cls-1" x="175.5" y="110" width="3" height="3"/><rect class="cls-1" x="169.5" y="110" width="3" height="3"/><line class="cls-2" x1="257" y1="21.5" x2="218" y2="21.5"/><rect class="cls-1" x="218" y="0.5" width="62.5" height="17"/><rect class="cls-1" x="277.5" y="20" width="3" height="3"/><rect class="cls-1" x="271.5" y="20" width="3" height="3"/><rect class="cls-1" x="265.5" y="20" width="3" height="3"/><rect class="cls-1" x="259.5" y="20" width="3" height="3"/><line class="cls-2" x1="257" y1="51.5" x2="218" y2="51.5"/><rect class="cls-1" x="218" y="30.5" width="62.5" height="17"/><rect class="cls-1" x="277.5" y="50" width="3" height="3"/><rect class="cls-1" x="271.5" y="50" width="3" height="3"/><rect class="cls-1" x="265.5" y="50" width="3" height="3"/><rect class="cls-1" x="259.5" y="50" width="3" height="3"/><line class="cls-2" x1="257" y1="81.5" x2="218" y2="81.5"/><rect class="cls-1" x="218" y="60.5" width="62.5" height="17"/><rect class="cls-1" x="277.5" y="80" width="3" height="3"/><rect class="cls-1" x="271.5" y="80" width="3" height="3"/><rect class="cls-1" x="265.5" y="80" width="3" height="3"/><rect class="cls-1" x="259.5" y="80" width="3" height="3"/><line class="cls-2" x1="257" y1="111.5" x2="218" y2="111.5"/><rect class="cls-1" x="218" y="90.5" width="62.5" height="17"/><rect class="cls-1" x="277.5" y="110" width="3" height="3"/><rect class="cls-1" x="271.5" y="110" width="3" height="3"/><rect class="cls-1" x="265.5" y="110" width="3" height="3"/><rect class="cls-1" x="259.5" y="110" width="3" height="3"/><line class="cls-2" x1="327" y1="21.5" x2="288" y2="21.5"/><rect class="cls-1" x="288" y="0.5" width="62.5" height="17"/><rect class="cls-1" x="347.5" y="20" width="3" height="3"/><rect class="cls-1" x="341.5" y="20" width="3" height="3"/><rect class="cls-1" x="335.5" y="20" width="3" height="3"/><rect class="cls-1" x="329.5" y="20" width="3" height="3"/><line class="cls-2" x1="327" y1="51.5" x2="288" y2="51.5"/><rect class="cls-1" x="288" y="30.5" width="62.5" height="17"/><rect class="cls-1" x="347.5" y="50" width="3" height="3"/><rect class="cls-1" x="341.5" y="50" width="3" height="3"/><rect class="cls-1" x="335.5" y="50" width="3" height="3"/><rect class="cls-1" x="329.5" y="50" width="3" height="3"/><line class="cls-2" x1="327" y1="81.5" x2="288" y2="81.5"/><rect class="cls-1" x="288" y="60.5" width="62.5" height="17"/><rect class="cls-1" x="347.5" y="80" width="3" height="3"/><rect class="cls-1" x="341.5" y="80" width="3" height="3"/><rect class="cls-1" x="335.5" y="80" width="3" height="3"/><rect class="cls-1" x="329.5" y="80" width="3" height="3"/><line class="cls-2" x1="327" y1="111.5" x2="288" y2="111.5"/><rect class="cls-1" x="288" y="90.5" width="62.5" height="17"/><rect class="cls-1" x="347.5" y="110" width="3" height="3"/><rect class="cls-1" x="341.5" y="110" width="3" height="3"/><rect class="cls-1" x="335.5" y="110" width="3" height="3"/><rect class="cls-1" x="329.5" y="110" width="3" height="3"/><line class="cls-2" x1="417" y1="21.5" x2="378" y2="21.5"/><rect class="cls-1" x="378" y="0.5" width="62.5" height="17"/><rect class="cls-1" x="437.5" y="20" width="3" height="3"/><rect class="cls-1" x="431.5" y="20" width="3" height="3"/><rect class="cls-1" x="425.5" y="20" width="3" height="3"/><rect class="cls-1" x="419.5" y="20" width="3" height="3"/><line class="cls-2" x1="417" y1="51.5" x2="378" y2="51.5"/><rect class="cls-1" x="378" y="30.5" width="62.5" height="17"/><rect class="cls-1" x="437.5" y="50" width="3" height="3"/><rect class="cls-1" x="431.5" y="50" width="3" height="3"/><rect class="cls-1" x="425.5" y="50" width="3" height="3"/><rect class="cls-1" x="419.5" y="50" width="3" height="3"/><line class="cls-2" x1="417" y1="81.5" x2="378" y2="81.5"/><rect class="cls-1" x="378" y="60.5" width="62.5" height="17"/><rect class="cls-1" x="437.5" y="80" width="3" height="3"/><rect class="cls-1" x="431.5" y="80" width="3" height="3"/><rect class="cls-1" x="425.5" y="80" width="3" height="3"/><rect class="cls-1" x="419.5" y="80" width="3" height="3"/><line class="cls-2" x1="417" y1="111.5" x2="378" y2="111.5"/><rect class="cls-1" x="378" y="90.5" width="62.5" height="17"/><rect class="cls-1" x="437.5" y="110" width="3" height="3"/><rect class="cls-1" x="431.5" y="110" width="3" height="3"/><rect class="cls-1" x="425.5" y="110" width="3" height="3"/><rect class="cls-1" x="419.5" y="110" width="3" height="3"/><line class="cls-2" x1="487" y1="21.5" x2="448" y2="21.5"/><rect class="cls-1" x="448" y="0.5" width="62.5" height="17"/><rect class="cls-1" x="507.5" y="20" width="3" height="3"/><rect class="cls-1" x="501.5" y="20" width="3" height="3"/><rect class="cls-1" x="495.5" y="20" width="3" height="3"/><rect class="cls-1" x="489.5" y="20" width="3" height="3"/><line class="cls-2" x1="487" y1="51.5" x2="448" y2="51.5"/><rect class="cls-1" x="448" y="30.5" width="62.5" height="17"/><rect class="cls-1" x="507.5" y="50" width="3" height="3"/><rect class="cls-1" x="501.5" y="50" width="3" height="3"/><rect class="cls-1" x="495.5" y="50" width="3" height="3"/><rect class="cls-1" x="489.5" y="50" width="3" height="3"/><line class="cls-2" x1="487" y1="81.5" x2="448" y2="81.5"/><rect class="cls-1" x="448" y="60.5" width="62.5" height="17"/><rect class="cls-1" x="507.5" y="80" width="3" height="3"/><rect class="cls-1" x="501.5" y="80" width="3" height="3"/><rect class="cls-1" x="495.5" y="80" width="3" height="3"/><rect class="cls-1" x="489.5" y="80" width="3" height="3"/><line class="cls-2" x1="487" y1="111.5" x2="448" y2="111.5"/><rect class="cls-1" x="448" y="90.5" width="62.5" height="17"/><rect class="cls-1" x="507.5" y="110" width="3" height="3"/><rect class="cls-1" x="501.5" y="110" width="3" height="3"/><rect class="cls-1" x="495.5" y="110" width="3" height="3"/><rect class="cls-1" x="489.5" y="110" width="3" height="3"/><line class="cls-2" x1="577" y1="21.5" x2="538" y2="21.5"/><rect class="cls-1" x="538" y="0.5" width="62.5" height="17"/><rect class="cls-1" x="597.5" y="20" width="3" height="3"/><rect class="cls-1" x="591.5" y="20" width="3" height="3"/><rect class="cls-1" x="585.5" y="20" width="3" height="3"/><rect class="cls-1" x="579.5" y="20" width="3" height="3"/><line class="cls-2" x1="577" y1="51.5" x2="538" y2="51.5"/><rect class="cls-1" x="538" y="30.5" width="62.5" height="17"/><rect class="cls-1" x="597.5" y="50" width="3" height="3"/><rect class="cls-1" x="591.5" y="50" width="3" height="3"/><rect class="cls-1" x="585.5" y="50" width="3" height="3"/><rect class="cls-1" x="579.5" y="50" width="3" height="3"/><line class="cls-2" x1="577" y1="81.5" x2="538" y2="81.5"/><rect class="cls-1" x="538" y="60.5" width="62.5" height="17"/><rect class="cls-1" x="597.5" y="80" width="3" height="3"/><rect class="cls-1" x="591.5" y="80" width="3" height="3"/><rect class="cls-1" x="585.5" y="80" width="3" height="3"/><rect class="cls-1" x="579.5" y="80" width="3" height="3"/><line class="cls-2" x1="577" y1="111.5" x2="538" y2="111.5"/><rect class="cls-1" x="538" y="90.5" width="62.5" height="17"/><rect class="cls-1" x="597.5" y="110" width="3" height="3"/><rect class="cls-1" x="591.5" y="110" width="3" height="3"/><rect class="cls-1" x="585.5" y="110" width="3" height="3"/><rect class="cls-1" x="579.5" y="110" width="3" height="3"/><line class="cls-2" x1="647" y1="21.5" x2="608" y2="21.5"/><rect class="cls-1" x="608" y="0.5" width="62.5" height="17"/><rect class="cls-1" x="667.5" y="20" width="3" height="3"/><rect class="cls-1" x="661.5" y="20" width="3" height="3"/><rect class="cls-1" x="655.5" y="20" width="3" height="3"/><rect class="cls-1" x="649.5" y="20" width="3" height="3"/><line class="cls-2" x1="647" y1="51.5" x2="608" y2="51.5"/><rect class="cls-1" x="608" y="30.5" width="62.5" height="17"/><rect class="cls-1" x="667.5" y="50" width="3" height="3"/><rect class="cls-1" x="661.5" y="50" width="3" height="3"/><rect class="cls-1" x="655.5" y="50" width="3" height="3"/><rect class="cls-1" x="649.5" y="50" width="3" height="3"/><line class="cls-2" x1="647" y1="81.5" x2="608" y2="81.5"/><rect class="cls-1" x="608" y="60.5" width="62.5" height="17"/><rect class="cls-1" x="667.5" y="80" width="3" height="3"/><rect class="cls-1" x="661.5" y="80" width="3" height="3"/><rect class="cls-1" x="655.5" y="80" width="3" height="3"/><rect class="cls-1" x="649.5" y="80" width="3" height="3"/><line class="cls-2" x1="647" y1="111.5" x2="608" y2="111.5"/><rect class="cls-1" x="608" y="90.5" width="62.5" height="17"/><rect class="cls-1" x="667.5" y="110" width="3" height="3"/><rect class="cls-1" x="661.5" y="110" width="3" height="3"/><rect class="cls-1" x="655.5" y="110" width="3" height="3"/><rect class="cls-1" x="649.5" y="110" width="3" height="3"/><rect class="cls-3" width="671" height="113.5"/></g></g></svg>