<svg xmlns="http://www.w3.org/2000/svg" viewBox="0 0 671 113.5"><defs><style>.cls-1{fill:#e0e0e0;}.cls-2,.cls-3,.cls-4,.cls-6,.cls-7{fill:none;}.cls-3{stroke:#4d4d4d;}.cls-3,.cls-4,.cls-5,.cls-6,.cls-7{stroke-miterlimit:10;}.cls-4{stroke:#8cc63f;}.cls-4,.cls-6{stroke-width:2px;}.cls-5{fill:#f7931e;stroke:#f7931e;}.cls-6,.cls-7{stroke:#b3b3b3;}</style></defs><g id="Layer_2" data-name="Layer 2"><g id="Layer_2-2" data-name="Layer 2"><rect class="cls-1" x="58" y="0.5" width="62" height="17"/><rect class="cls-1" x="58" y="30.5" width="62" height="17"/><rect class="cls-1" x="58" y="60.5" width="62" height="17"/><rect class="cls-1" x="58" y="90.5" width="62" height="17"/><rect class="cls-1" x="128" y="0.5" width="62" height="17"/><rect class="cls-1" x="128" y="30.5" width="62" height="17"/><rect class="cls-1" x="128" y="60.5" width="62" height="17"/><rect class="cls-1" x="128" y="90.5" width="62" height="17"/><rect class="cls-2" width="671" height="113.5"/></g><g id="Layer_3" data-name="Layer 3"><path d="M11.8,91.33V89L25.08,84.6v1.72L12.76,90.46V90l12.32,4.11v1.71Zm8.63,2.3V86.74H22v6.89Z"/><path d="M11.8,82.94V77.69a6.17,6.17,0,0,1,.08-1,3.59,3.59,0,0,1,1.36-2.42A4.42,4.42,0,0,1,16,73.43a4.41,4.41,0,0,1,2.71.82,3.57,3.57,0,0,1,1.38,2.33l.09.65V81.3h4.91v1.64Zm6.81-5.2a4,4,0,0,0-.08-.83,2,2,0,0,0-.92-1.33,3.14,3.14,0,0,0-3.24,0,2,2,0,0,0-.92,1.33,4.25,4.25,0,0,0-.08.83V81.3h5.24Zm1.07-.07L19.18,76l5.9-2.87v1.89Z"/><path d="M11.8,71.13V65.87a6,6,0,0,1,.08-1,3.61,3.61,0,0,1,1.36-2.43A4.42,4.42,0,0,1,16,61.62a4.41,4.41,0,0,1,2.71.82,3.52,3.52,0,0,1,1.38,2.33l.09.64v4.08h4.91v1.64Zm6.81-5.2a4,4,0,0,0-.08-.83,2.05,2.05,0,0,0-.92-1.34,3.14,3.14,0,0,0-3.24,0,2.05,2.05,0,0,0-.92,1.34,4.17,4.17,0,0,0-.08.83v3.56h5.24Zm1.07-.07-.5-1.64,5.9-2.88v1.9Z"/><path d="M11.8,55.79V53.51l13.28-4.44v1.71L12.76,54.93v-.52l12.32,4.11v1.72Zm8.63,2.31V51.2H22v6.9Z"/><path d="M19.56,45.32,11.8,49.8V47.89l5.87-3.4L11.8,41.12V39.2l7.76,4.46h5.52v1.66Z"/><path d="M11.8,35V29.78a4.05,4.05,0,0,1,.48-2,3.33,3.33,0,0,1,1.28-1.3A3.54,3.54,0,0,1,15.31,26a3.25,3.25,0,0,1,1.88.55,2.84,2.84,0,0,1,1.12,1.49l-.46,0a3.65,3.65,0,0,1,1.25-2,3.46,3.46,0,0,1,2.18-.71,4.08,4.08,0,0,1,2,.48,3.29,3.29,0,0,1,1.32,1.37,4.63,4.63,0,0,1,.46,2.09V35Zm5.53-5.16a2.31,2.31,0,0,0-.24-1.05,1.9,1.9,0,0,0-.71-.75,2,2,0,0,0-1.07-.28,1.83,1.83,0,0,0-1.41.58,2.13,2.13,0,0,0-.55,1.5v3.51h4Zm6.18-.16a2.76,2.76,0,0,0-.61-1.84,2,2,0,0,0-1.64-.72,2.43,2.43,0,0,0-1.2.3,2.31,2.31,0,0,0-.85.85,2.48,2.48,0,0,0-.31,1.22v3.86h4.61Z"/><path d="M13.63,21.25l1.51,2.49H13.3l-1.5-2.49V19.58H25.08v1.67Z"/><rect class="cls-3" x="0.5" y="0.5" width="38" height="112.5"/><line class="cls-4" x1="97" y1="21.5" x2="58" y2="21.5"/><rect class="cls-3" x="58" y="0.5" width="62.5" height="17"/><rect class="cls-5" x="117.5" y="20" width="3" height="3"/><rect class="cls-3" x="111.5" y="20" width="3" height="3"/><rect class="cls-3" x="105.5" y="20" width="3" height="3"/><rect class="cls-3" x="99.5" y="20" width="3" height="3"/><line class="cls-4" x1="97" y1="51.5" x2="58" y2="51.5"/><rect class="cls-3" x="58" y="30.5" width="62.5" height="17"/><rect class="cls-5" x="117.5" y="50" width="3" height="3"/><rect class="cls-3" x="111.5" y="50" width="3" height="3"/><rect class="cls-3" x="105.5" y="50" width="3" height="3"/><rect class="cls-3" x="99.5" y="50" width="3" height="3"/><line class="cls-4" x1="97" y1="81.5" x2="58" y2="81.5"/><rect class="cls-3" x="58" y="60.5" width="62.5" height="17"/><rect class="cls-5" x="117.5" y="80" width="3" height="3"/><rect class="cls-3" x="111.5" y="80" width="3" height="3"/><rect class="cls-3" x="105.5" y="80" width="3" height="3"/><rect class="cls-3" x="99.5" y="80" width="3" height="3"/><line class="cls-4" x1="97" y1="111.5" x2="58" y2="111.5"/><rect class="cls-3" x="58" y="90.5" width="62.5" height="17"/><rect class="cls-5" x="117.5" y="110" width="3" height="3"/><rect class="cls-3" x="111.5" y="110" width="3" height="3"/><rect class="cls-3" x="105.5" y="110" width="3" height="3"/><rect class="cls-3" x="99.5" y="110" width="3" height="3"/><line class="cls-4" x1="167" y1="21.5" x2="128" y2="21.5"/><rect class="cls-3" x="128" y="0.5" width="62.5" height="17"/><rect class="cls-5" x="187.5" y="20" width="3" height="3"/><rect class="cls-3" x="181.5" y="20" width="3" height="3"/><rect class="cls-3" x="175.5" y="20" width="3" height="3"/><rect class="cls-3" x="169.5" y="20" width="3" height="3"/><line class="cls-4" x1="167" y1="51.5" x2="128" y2="51.5"/><rect class="cls-3" x="128" y="30.5" width="62.5" height="17"/><rect class="cls-5" x="187.5" y="50" width="3" height="3"/><rect class="cls-3" x="181.5" y="50" width="3" height="3"/><rect class="cls-3" x="175.5" y="50" width="3" height="3"/><rect class="cls-3" x="169.5" y="50" width="3" height="3"/><line class="cls-4" x1="167" y1="81.5" x2="128" y2="81.5"/><rect class="cls-3" x="128" y="60.5" width="62.5" height="17"/><rect class="cls-5" x="187.5" y="80" width="3" height="3"/><rect class="cls-3" x="181.5" y="80" width="3" height="3"/><rect class="cls-3" x="175.5" y="80" width="3" height="3"/><rect class="cls-3" x="169.5" y="80" width="3" height="3"/><line class="cls-4" x1="167" y1="111.5" x2="128" y2="111.5"/><rect class="cls-3" x="128" y="90.5" width="62.5" height="17"/><rect class="cls-5" x="187.5" y="110" width="3" height="3"/><rect class="cls-3" x="181.5" y="110" width="3" height="3"/><rect class="cls-3" x="175.5" y="110" width="3" height="3"/><rect class="cls-3" x="169.5" y="110" width="3" height="3"/><line class="cls-6" x1="257" y1="21.5" x2="218" y2="21.5"/><rect class="cls-7" x="218" y="0.5" width="62.5" height="17"/><rect class="cls-7" x="277.5" y="20" width="3" height="3"/><rect class="cls-7" x="271.5" y="20" width="3" height="3"/><rect class="cls-7" x="265.5" y="20" width="3" height="3"/><rect class="cls-7" x="259.5" y="20" width="3" height="3"/><line class="cls-6" x1="257" y1="51.5" x2="218" y2="51.5"/><rect class="cls-7" x="218" y="30.5" width="62.5" height="17"/><rect class="cls-7" x="277.5" y="50" width="3" height="3"/><rect class="cls-7" x="271.5" y="50" width="3" height="3"/><rect class="cls-7" x="265.5" y="50" width="3" height="3"/><rect class="cls-7" x="259.5" y="50" width="3" height="3"/><line class="cls-6" x1="257" y1="81.5" x2="218" y2="81.5"/><rect class="cls-7" x="218" y="60.5" width="62.5" height="17"/><rect class="cls-7" x="277.5" y="80" width="3" height="3"/><rect class="cls-7" x="271.5" y="80" width="3" height="3"/><rect class="cls-7" x="265.5" y="80" width="3" height="3"/><rect class="cls-7" x="259.5" y="80" width="3" height="3"/><line class="cls-6" x1="257" y1="111.5" x2="218" y2="111.5"/><rect class="cls-7" x="218" y="90.5" width="62.5" height="17"/><rect class="cls-7" x="277.5" y="110" width="3" height="3"/><rect class="cls-7" x="271.5" y="110" width="3" height="3"/><rect class="cls-7" x="265.5" y="110" width="3" height="3"/><rect class="cls-7" x="259.5" y="110" width="3" height="3"/><line class="cls-6" x1="327" y1="21.5" x2="288" y2="21.5"/><rect class="cls-7" x="288" y="0.5" width="62.5" height="17"/><rect class="cls-7" x="347.5" y="20" width="3" height="3"/><rect class="cls-7" x="341.5" y="20" width="3" height="3"/><rect class="cls-7" x="335.5" y="20" width="3" height="3"/><rect class="cls-7" x="329.5" y="20" width="3" height="3"/><line class="cls-6" x1="327" y1="51.5" x2="288" y2="51.5"/><rect class="cls-7" x="288" y="30.5" width="62.5" height="17"/><rect class="cls-7" x="347.5" y="50" width="3" height="3"/><rect class="cls-7" x="341.5" y="50" width="3" height="3"/><rect class="cls-7" x="335.5" y="50" width="3" height="3"/><rect class="cls-7" x="329.5" y="50" width="3" height="3"/><line class="cls-6" x1="327" y1="81.5" x2="288" y2="81.5"/><rect class="cls-7" x="288" y="60.5" width="62.5" height="17"/><rect class="cls-7" x="347.5" y="80" width="3" height="3"/><rect class="cls-7" x="341.5" y="80" width="3" height="3"/><rect class="cls-7" x="335.5" y="80" width="3" height="3"/><rect class="cls-7" x="329.5" y="80" width="3" height="3"/><line class="cls-6" x1="327" y1="111.5" x2="288" y2="111.5"/><rect class="cls-7" x="288" y="90.5" width="62.5" height="17"/><rect class="cls-7" x="347.5" y="110" width="3" height="3"/><rect class="cls-7" x="341.5" y="110" width="3" height="3"/><rect class="cls-7" x="335.5" y="110" width="3" height="3"/><rect class="cls-7" x="329.5" y="110" width="3" height="3"/><line class="cls-6" x1="417" y1="21.5" x2="378" y2="21.5"/><rect class="cls-7" x="378" y="0.5" width="62.5" height="17"/><rect class="cls-7" x="437.5" y="20" width="3" height="3"/><rect class="cls-7" x="431.5" y="20" width="3" height="3"/><rect class="cls-7" x="425.5" y="20" width="3" height="3"/><rect class="cls-7" x="419.5" y="20" width="3" height="3"/><line class="cls-6" x1="417" y1="51.5" x2="378" y2="51.5"/><rect class="cls-7" x="378" y="30.5" width="62.5" height="17"/><rect class="cls-7" x="437.5" y="50" width="3" height="3"/><rect class="cls-7" x="431.5" y="50" width="3" height="3"/><rect class="cls-7" x="425.5" y="50" width="3" height="3"/><rect class="cls-7" x="419.5" y="50" width="3" height="3"/><line class="cls-6" x1="417" y1="81.5" x2="378" y2="81.5"/><rect class="cls-7" x="378" y="60.5" width="62.5" height="17"/><rect class="cls-7" x="437.5" y="80" width="3" height="3"/><rect class="cls-7" x="431.5" y="80" width="3" height="3"/><rect class="cls-7" x="425.5" y="80" width="3" height="3"/><rect class="cls-7" x="419.5" y="80" width="3" height="3"/><line class="cls-6" x1="417" y1="111.5" x2="378" y2="111.5"/><rect class="cls-7" x="378" y="90.5" width="62.5" height="17"/><rect class="cls-7" x="437.5" y="110" width="3" height="3"/><rect class="cls-7" x="431.5" y="110" width="3" height="3"/><rect class="cls-7" x="425.5" y="110" width="3" height="3"/><rect class="cls-7" x="419.5" y="110" width="3" height="3"/><line class="cls-6" x1="487" y1="21.5" x2="448" y2="21.5"/><rect class="cls-7" x="448" y="0.5" width="62.5" height="17"/><rect class="cls-7" x="507.5" y="20" width="3" height="3"/><rect class="cls-7" x="501.5" y="20" width="3" height="3"/><rect class="cls-7" x="495.5" y="20" width="3" height="3"/><rect class="cls-7" x="489.5" y="20" width="3" height="3"/><line class="cls-6" x1="487" y1="51.5" x2="448" y2="51.5"/><rect class="cls-7" x="448" y="30.5" width="62.5" height="17"/><rect class="cls-7" x="507.5" y="50" width="3" height="3"/><rect class="cls-7" x="501.5" y="50" width="3" height="3"/><rect class="cls-7" x="495.5" y="50" width="3" height="3"/><rect class="cls-7" x="489.5" y="50" width="3" height="3"/><line class="cls-6" x1="487" y1="81.5" x2="448" y2="81.5"/><rect class="cls-7" x="448" y="60.5" width="62.5" height="17"/><rect class="cls-7" x="507.5" y="80" width="3" height="3"/><rect class="cls-7" x="501.5" y="80" width="3" height="3"/><rect class="cls-7" x="495.5" y="80" width="3" height="3"/><rect class="cls-7" x="489.5" y="80" width="3" height="3"/><line class="cls-6" x1="487" y1="111.5" x2="448" y2="111.5"/><rect class="cls-7" x="448" y="90.5" width="62.5" height="17"/><rect class="cls-7" x="507.5" y="110" width="3" height="3"/><rect class="cls-7" x="501.5" y="110" width="3" height="3"/><rect class="cls-7" x="495.5" y="110" width="3" height="3"/><rect class="cls-7" x="489.5" y="110" width="3" height="3"/><line class="cls-6" x1="577" y1="21.5" x2="538" y2="21.5"/><rect class="cls-7" x="538" y="0.5" width="62.5" height="17"/><rect class="cls-7" x="597.5" y="20" width="3" height="3"/><rect class="cls-7" x="591.5" y="20" width="3" height="3"/><rect class="cls-7" x="585.5" y="20" width="3" height="3"/><rect class="cls-7" x="579.5" y="20" width="3" height="3"/><line class="cls-6" x1="577" y1="51.5" x2="538" y2="51.5"/><rect class="cls-7" x="538" y="30.5" width="62.5" height="17"/><rect class="cls-7" x="597.5" y="50" width="3" height="3"/><rect class="cls-7" x="591.5" y="50" width="3" height="3"/><rect class="cls-7" x="585.5" y="50" width="3" height="3"/><rect class="cls-7" x="579.5" y="50" width="3" height="3"/><line class="cls-6" x1="577" y1="81.5" x2="538" y2="81.5"/><rect class="cls-7" x="538" y="60.5" width="62.5" height="17"/><rect class="cls-7" x="597.5" y="80" width="3" height="3"/><rect class="cls-7" x="591.5" y="80" width="3" height="3"/><rect class="cls-7" x="585.5" y="80" width="3" height="3"/><rect class="cls-7" x="579.5" y="80" width="3" height="3"/><line class="cls-6" x1="577" y1="111.5" x2="538" y2="111.5"/><rect class="cls-7" x="538" y="90.5" width="62.5" height="17"/><rect class="cls-7" x="597.5" y="110" width="3" height="3"/><rect class="cls-7" x="591.5" y="110" width="3" height="3"/><rect class="cls-7" x="585.5" y="110" width="3" height="3"/><rect class="cls-7" x="579.5" y="110" width="3" height="3"/><line class="cls-6" x1="647" y1="21.5" x2="608" y2="21.5"/><rect class="cls-7" x="608" y="0.5" width="62.5" height="17"/><rect class="cls-7" x="667.5" y="20" width="3" height="3"/><rect class="cls-7" x="661.5" y="20" width="3" height="3"/><rect class="cls-7" x="655.5" y="20" width="3" height="3"/><rect class="cls-7" x="649.5" y="20" width="3" height="3"/><line class="cls-6" x1="647" y1="51.5" x2="608" y2="51.5"/><rect class="cls-7" x="608" y="30.5" width="62.5" height="17"/><rect class="cls-7" x="667.5" y="50" width="3" height="3"/><rect class="cls-7" x="661.5" y="50" width="3" height="3"/><rect class="cls-7" x="655.5" y="50" width="3" height="3"/><rect class="cls-7" x="649.5" y="50" width="3" height="3"/><line class="cls-6" x1="647" y1="81.5" x2="608" y2="81.5"/><rect class="cls-7" x="608" y="60.5" width="62.5" height="17"/><rect class="cls-7" x="667.5" y="80" width="3" height="3"/><rect class="cls-7" x="661.5" y="80" width="3" height="3"/><rect class="cls-7" x="655.5" y="80" width="3" height="3"/><rect class="cls-7" x="649.5" y="80" width="3" height="3"/><line class="cls-6" x1="647" y1="111.5" x2="608" y2="111.5"/><rect class="cls-7" x="608" y="90.5" width="62.5" height="17"/><rect class="cls-7" x="667.5" y="110" width="3" height="3"/><rect class="cls-7" x="661.5" y="110" width="3" height="3"/><rect class="cls-7" x="655.5" y="110" width="3" height="3"/><rect class="cls-7" x="649.5" y="110" width="3" height="3"/></g></g></svg>