<svg xmlns="http://www.w3.org/2000/svg" viewBox="0 0 59.53 230.44"><defs><style>.cls-1{fill:none;stroke:#4d4d4d;stroke-miterlimit:10;}</style></defs><g id="Layer_2" data-name="Layer 2"><g id="Layer_3" data-name="Layer 3"><path d="M37.69,187a7.79,7.79,0,0,1-.57,3,5.59,5.59,0,0,1-1.64,2.22A5.34,5.34,0,0,1,33,193.34l-.31-2A4,4,0,0,0,35,189.74a4.88,4.88,0,0,0,.84-2.87,4.69,4.69,0,0,0-.74-2.7,2.32,2.32,0,0,0-2-1.09,1.87,1.87,0,0,0-1.47.58,4.13,4.13,0,0,0-.83,1.61l-1.21,4a6.05,6.05,0,0,1-1.35,2.49,3.3,3.3,0,0,1-2.51.93,4,4,0,0,1-2.37-.72,4.65,4.65,0,0,1-1.54-2,6.87,6.87,0,0,1-.52-2.83,7.07,7.07,0,0,1,.55-2.85,5.35,5.35,0,0,1,1.59-2.09,5.7,5.7,0,0,1,2.47-1.11l.37,2.08A3.6,3.6,0,0,0,24,184.59a4.35,4.35,0,0,0-.87,2.64,4.67,4.67,0,0,0,.32,1.73,3.06,3.06,0,0,0,.89,1.25,2,2,0,0,0,1.29.46,1.64,1.64,0,0,0,1.46-.73,6.13,6.13,0,0,0,.82-1.9l.86-3a12.77,12.77,0,0,1,.7-1.85,4,4,0,0,1,1.25-1.47,3.67,3.67,0,0,1,2.26-.65,4.19,4.19,0,0,1,2.54.78A4.9,4.9,0,0,1,37.13,184,7.81,7.81,0,0,1,37.69,187Z"/><path d="M37.69,172.27a7.47,7.47,0,0,1-1,4,6.6,6.6,0,0,1-2.89,2.53,10,10,0,0,1-4.31.87,10.08,10.08,0,0,1-4.31-.87,6.63,6.63,0,0,1-2.88-2.53,8.19,8.19,0,0,1,0-8,6.61,6.61,0,0,1,2.88-2.52,10.08,10.08,0,0,1,4.31-.87,10,10,0,0,1,4.31.87,6.58,6.58,0,0,1,2.89,2.52A7.43,7.43,0,0,1,37.69,172.27Zm-1.87,0a4.71,4.71,0,0,0-1.72-3.93A7.32,7.32,0,0,0,29.46,167a7.26,7.26,0,0,0-4.62,1.35,4.79,4.79,0,0,0-1.74,3.94,4.68,4.68,0,0,0,1.71,3.91,7.37,7.37,0,0,0,4.65,1.37A8.07,8.07,0,0,0,32.8,177,4.86,4.86,0,0,0,35,175.18,5.24,5.24,0,0,0,35.82,172.27Z"/><path d="M21.57,162.49v-2H35.49v-7.33h1.87v9.28Z"/><path d="M21.57,147.16v-2.72l15.79-5.28v2l-14.65,4.93v-.61l14.65,4.89v2Zm10.26,2.74v-8.2h1.84v8.2Z"/><path d="M21.57,137.18v-6.25a7.18,7.18,0,0,1,.09-1.16,4.28,4.28,0,0,1,1.62-2.88,5.23,5.23,0,0,1,3.27-1,5.26,5.26,0,0,1,3.22,1,4.21,4.21,0,0,1,1.64,2.78l.11.76v4.85h5.84v2ZM29.66,131a4.78,4.78,0,0,0-.09-1,2.43,2.43,0,0,0-1.09-1.59,3.72,3.72,0,0,0-3.86,0,2.45,2.45,0,0,0-1.1,1.59,4.91,4.91,0,0,0-.09,1v4.23h6.23Zm1.27-.09L30.34,129l7-3.42v2.26Z"/><path d="M21.57,114.55v-2.72l15.79-5.28v2l-14.65,4.93v-.61l14.65,4.89v2Zm10.26,2.74v-8.2h1.84v8.2Z"/><path d="M21.57,104.57V98.32a7.18,7.18,0,0,1,.09-1.16,4.28,4.28,0,0,1,1.62-2.88,5.23,5.23,0,0,1,3.27-1,5.26,5.26,0,0,1,3.22,1A4.21,4.21,0,0,1,31.41,97l.11.77v4.84h5.84v1.95Zm8.09-6.18a4.78,4.78,0,0,0-.09-1,2.43,2.43,0,0,0-1.09-1.59,3.78,3.78,0,0,0-3.86,0,2.45,2.45,0,0,0-1.1,1.59,5,5,0,0,0-.09,1v4.23h6.23Zm1.27-.09-.59-2,7-3.42v2.26Z"/><path d="M21.57,90.52V84.27a7.31,7.31,0,0,1,.09-1.17,4.28,4.28,0,0,1,1.62-2.88,5.23,5.23,0,0,1,3.27-1,5.26,5.26,0,0,1,3.22,1A4.19,4.19,0,0,1,31.41,83l.11.77v4.85h5.84v2Zm8.09-6.19a4.61,4.61,0,0,0-.09-1,2.39,2.39,0,0,0-1.09-1.59,3.72,3.72,0,0,0-3.86,0,2.4,2.4,0,0,0-1.1,1.59,4.88,4.88,0,0,0-.09,1v4.24h6.23Zm1.27-.08-.59-2,7-3.42v2.26Z"/><path d="M21.57,72.27V69.55l15.79-5.28v2L22.71,71.24v-.61l14.65,4.89v2ZM31.83,75v-8.2h1.84V75Z"/><path d="M30.8,59.82l-9.23,5.32V62.86l7-4-7-4V52.54l9.23,5.3h6.56v2Z"/><path d="M35.58,47.93l-6.29-7a4.87,4.87,0,0,0-1.45-1.14,3.45,3.45,0,0,0-1.49-.33,3.32,3.32,0,0,0-1.65.42A3.2,3.2,0,0,0,23.53,41a3.26,3.26,0,0,0,0,3.27,3.25,3.25,0,0,0,1.19,1.17,3,3,0,0,0,1.59.41v2a5.05,5.05,0,0,1-2.62-.69,4.79,4.79,0,0,1-1.82-1.89,5.67,5.67,0,0,1-.65-2.7A5.14,5.14,0,0,1,21.92,40a5,5,0,0,1,1.85-1.85,5,5,0,0,1,2.6-.68,5.33,5.33,0,0,1,1.74.25,4.55,4.55,0,0,1,1.34.72,11.55,11.55,0,0,1,1.42,1.37s0,0,0,0l0,0,5.22,5.81-.66.26V37.43h1.87v10.5Z"/><rect class="cls-1" x="0.5" y="0.5" width="58.53" height="229.44"/></g></g></svg>