<svg xmlns="http://www.w3.org/2000/svg" viewBox="0 0 671 113.5"><defs><style>.cls-1{fill:#e0e0e0;}.cls-2,.cls-3,.cls-5,.cls-7,.cls-8,.cls-9{fill:none;}.cls-2{stroke:#4d4d4d;}.cls-2,.cls-3,.cls-4,.cls-5,.cls-6,.cls-7,.cls-8{stroke-miterlimit:10;}.cls-3{stroke:#8cc63f;}.cls-3,.cls-5,.cls-7{stroke-width:2px;}.cls-4{fill:#f7931e;}.cls-4,.cls-5{stroke:#f7931e;}.cls-6{fill:red;stroke:red;}.cls-7,.cls-8{stroke:#b3b3b3;}</style></defs><g id="Layer_2" data-name="Layer 2"><g id="Layer_3" data-name="Layer 3"><rect class="cls-1" x="58" y="0.5" width="62" height="17"/><rect class="cls-1" x="58" y="30.5" width="62" height="17"/><rect class="cls-1" x="58" y="60.5" width="62" height="17"/><rect class="cls-1" x="58" y="90.5" width="62" height="17"/><rect class="cls-1" x="128" y="30.5" width="62" height="17"/><rect class="cls-1" x="128" y="60.5" width="62" height="17"/><rect class="cls-1" x="128" y="90.5" width="62" height="17"/><path d="M11.8,92.92V90.64l13.28-4.45v1.72L12.76,92.06v-.52l12.32,4.11v1.71Zm8.63,2.31v-6.9H22v6.9Z"/><path d="M11.8,84.54V79.28a6.17,6.17,0,0,1,.08-1,3.59,3.59,0,0,1,1.36-2.42A4.42,4.42,0,0,1,16,75a4.47,4.47,0,0,1,2.71.82,3.57,3.57,0,0,1,1.38,2.34l.09.64v4.07h4.91v1.65Zm6.81-5.2a4,4,0,0,0-.08-.83,2,2,0,0,0-.92-1.34,3.14,3.14,0,0,0-3.24,0,2.08,2.08,0,0,0-.93,1.34,5,5,0,0,0-.07.83v3.55h5.24Zm1.06-.08-.49-1.64,5.9-2.87v1.9Z"/><path d="M11.8,72.72V67.47a6.08,6.08,0,0,1,.08-1,3.59,3.59,0,0,1,1.36-2.42A4.42,4.42,0,0,1,16,63.21,4.41,4.41,0,0,1,18.7,64a3.54,3.54,0,0,1,1.38,2.33l.09.65v4.07h4.91v1.64Zm6.81-5.2a4,4,0,0,0-.08-.83,2,2,0,0,0-.92-1.33,3.14,3.14,0,0,0-3.24,0,2.06,2.06,0,0,0-.93,1.33,5.25,5.25,0,0,0-.07.83v3.56h5.24Zm1.06-.07-.49-1.64,5.9-2.88v1.9Z"/><path d="M11.8,57.39V55.1l13.28-4.44v1.71L12.76,56.52V56l12.32,4.11v1.72Zm8.63,2.3V52.8H22v6.89Z"/><path d="M19.56,46.92,11.8,51.4V49.48l5.87-3.39L11.8,42.71V40.8l7.76,4.46h5.52v1.66Z"/><path d="M11.8,36.56V31.38a4,4,0,0,1,.48-2,3.36,3.36,0,0,1,1.28-1.31,3.54,3.54,0,0,1,1.75-.45,3.25,3.25,0,0,1,1.88.55,2.88,2.88,0,0,1,1.12,1.49l-.46,0a3.69,3.69,0,0,1,1.25-2A3.46,3.46,0,0,1,21.28,27a4.08,4.08,0,0,1,2,.48,3.18,3.18,0,0,1,1.31,1.38,4.44,4.44,0,0,1,.47,2.09v5.64Zm5.53-5.16a2.2,2.2,0,0,0-.25-1,1.84,1.84,0,0,0-.7-.76,2.11,2.11,0,0,0-1.07-.28,1.86,1.86,0,0,0-1.41.58,2.1,2.1,0,0,0-.55,1.51v3.5h4Zm6.18-.17a2.72,2.72,0,0,0-.61-1.83,2,2,0,0,0-1.64-.73,2.43,2.43,0,0,0-1.2.3,2.32,2.32,0,0,0-1.16,2.08V34.9h4.61Z"/><path d="M23.58,25.52l-5.29-5.9a4.16,4.16,0,0,0-1.21-1,3,3,0,0,0-1.26-.28,2.73,2.73,0,0,0-1.38.36,2.58,2.58,0,0,0-1,1A2.62,2.62,0,0,0,13.09,21a2.7,2.7,0,0,0,.38,1.4,2.79,2.79,0,0,0,1,1,2.49,2.49,0,0,0,1.33.34v1.69a4.23,4.23,0,0,1-2.2-.58,4,4,0,0,1-1.53-1.59A4.76,4.76,0,0,1,11.53,21a4.32,4.32,0,0,1,.57-2.2,4.17,4.17,0,0,1,1.56-1.56,4.25,4.25,0,0,1,2.18-.57,4.61,4.61,0,0,1,1.47.21,3.93,3.93,0,0,1,1.12.61,9.4,9.4,0,0,1,1.19,1.15s0,0,0,0l0,0L24,23.6l-.55.22V16.69h1.57v8.83Z"/><rect class="cls-2" x="0.5" y="0.5" width="38" height="112.5"/><line class="cls-3" x1="97" y1="21.5" x2="58" y2="21.5"/><rect class="cls-2" x="58" y="0.5" width="62.5" height="17"/><rect class="cls-4" x="117.5" y="20" width="3" height="3"/><rect class="cls-4" x="111.5" y="20" width="3" height="3"/><rect class="cls-2" x="105.5" y="20" width="3" height="3"/><rect class="cls-2" x="99.5" y="20" width="3" height="3"/><line class="cls-3" x1="97" y1="51.5" x2="58" y2="51.5"/><rect class="cls-2" x="58" y="30.5" width="62.5" height="17"/><rect class="cls-4" x="117.5" y="50" width="3" height="3"/><rect class="cls-4" x="111.5" y="50" width="3" height="3"/><rect class="cls-2" x="105.5" y="50" width="3" height="3"/><rect class="cls-2" x="99.5" y="50" width="3" height="3"/><line class="cls-3" x1="97" y1="81.5" x2="58" y2="81.5"/><rect class="cls-2" x="58" y="60.5" width="62.5" height="17"/><rect class="cls-4" x="117.5" y="80" width="3" height="3"/><rect class="cls-4" x="111.5" y="80" width="3" height="3"/><rect class="cls-2" x="105.5" y="80" width="3" height="3"/><rect class="cls-2" x="99.5" y="80" width="3" height="3"/><line class="cls-3" x1="97" y1="111.5" x2="58" y2="111.5"/><rect class="cls-2" x="58" y="90.5" width="62.5" height="17"/><rect class="cls-4" x="117.5" y="110" width="3" height="3"/><rect class="cls-4" x="111.5" y="110" width="3" height="3"/><rect class="cls-2" x="105.5" y="110" width="3" height="3"/><rect class="cls-2" x="99.5" y="110" width="3" height="3"/><line class="cls-5" x1="167" y1="21.5" x2="128" y2="21.5"/><rect class="cls-2" x="128" y="0.5" width="62.5" height="17"/><rect class="cls-4" x="187.5" y="20" width="3" height="3"/><rect class="cls-4" x="181.5" y="20" width="3" height="3"/><rect class="cls-2" x="175.5" y="20" width="3" height="3"/><rect class="cls-6" x="169.5" y="20" width="3" height="3"/><line class="cls-3" x1="167" y1="51.5" x2="128" y2="51.5"/><rect class="cls-2" x="128" y="30.5" width="62.5" height="17"/><rect class="cls-4" x="187.5" y="50" width="3" height="3"/><rect class="cls-4" x="181.5" y="50" width="3" height="3"/><rect class="cls-2" x="175.5" y="50" width="3" height="3"/><rect class="cls-2" x="169.5" y="50" width="3" height="3"/><line class="cls-3" x1="167" y1="81.5" x2="128" y2="81.5"/><rect class="cls-2" x="128" y="60.5" width="62.5" height="17"/><rect class="cls-4" x="187.5" y="80" width="3" height="3"/><rect class="cls-4" x="181.5" y="80" width="3" height="3"/><rect class="cls-2" x="175.5" y="80" width="3" height="3"/><rect class="cls-2" x="169.5" y="80" width="3" height="3"/><line class="cls-3" x1="167" y1="111.5" x2="128" y2="111.5"/><rect class="cls-2" x="128" y="90.5" width="62.5" height="17"/><rect class="cls-4" x="187.5" y="110" width="3" height="3"/><rect class="cls-4" x="181.5" y="110" width="3" height="3"/><rect class="cls-2" x="175.5" y="110" width="3" height="3"/><rect class="cls-2" x="169.5" y="110" width="3" height="3"/><line class="cls-7" x1="257" y1="21.5" x2="218" y2="21.5"/><rect class="cls-8" x="218" y="0.5" width="62.5" height="17"/><rect class="cls-8" x="277.5" y="20" width="3" height="3"/><rect class="cls-8" x="271.5" y="20" width="3" height="3"/><rect class="cls-8" x="265.5" y="20" width="3" height="3"/><rect class="cls-8" x="259.5" y="20" width="3" height="3"/><line class="cls-7" x1="257" y1="51.5" x2="218" y2="51.5"/><rect class="cls-8" x="218" y="30.5" width="62.5" height="17"/><rect class="cls-8" x="277.5" y="50" width="3" height="3"/><rect class="cls-8" x="271.5" y="50" width="3" height="3"/><rect class="cls-8" x="265.5" y="50" width="3" height="3"/><rect class="cls-8" x="259.5" y="50" width="3" height="3"/><line class="cls-7" x1="257" y1="81.5" x2="218" y2="81.5"/><rect class="cls-8" x="218" y="60.5" width="62.5" height="17"/><rect class="cls-8" x="277.5" y="80" width="3" height="3"/><rect class="cls-8" x="271.5" y="80" width="3" height="3"/><rect class="cls-8" x="265.5" y="80" width="3" height="3"/><rect class="cls-8" x="259.5" y="80" width="3" height="3"/><line class="cls-7" x1="257" y1="111.5" x2="218" y2="111.5"/><rect class="cls-8" x="218" y="90.5" width="62.5" height="17"/><rect class="cls-8" x="277.5" y="110" width="3" height="3"/><rect class="cls-8" x="271.5" y="110" width="3" height="3"/><rect class="cls-8" x="265.5" y="110" width="3" height="3"/><rect class="cls-8" x="259.5" y="110" width="3" height="3"/><line class="cls-7" x1="327" y1="21.5" x2="288" y2="21.5"/><rect class="cls-8" x="288" y="0.5" width="62.5" height="17"/><rect class="cls-8" x="347.5" y="20" width="3" height="3"/><rect class="cls-8" x="341.5" y="20" width="3" height="3"/><rect class="cls-8" x="335.5" y="20" width="3" height="3"/><rect class="cls-8" x="329.5" y="20" width="3" height="3"/><line class="cls-7" x1="327" y1="51.5" x2="288" y2="51.5"/><rect class="cls-8" x="288" y="30.5" width="62.5" height="17"/><rect class="cls-8" x="347.5" y="50" width="3" height="3"/><rect class="cls-8" x="341.5" y="50" width="3" height="3"/><rect class="cls-8" x="335.5" y="50" width="3" height="3"/><rect class="cls-8" x="329.5" y="50" width="3" height="3"/><line class="cls-7" x1="327" y1="81.5" x2="288" y2="81.5"/><rect class="cls-8" x="288" y="60.5" width="62.5" height="17"/><rect class="cls-8" x="347.5" y="80" width="3" height="3"/><rect class="cls-8" x="341.5" y="80" width="3" height="3"/><rect class="cls-8" x="335.5" y="80" width="3" height="3"/><rect class="cls-8" x="329.5" y="80" width="3" height="3"/><line class="cls-7" x1="327" y1="111.5" x2="288" y2="111.5"/><rect class="cls-8" x="288" y="90.5" width="62.5" height="17"/><rect class="cls-8" x="347.5" y="110" width="3" height="3"/><rect class="cls-8" x="341.5" y="110" width="3" height="3"/><rect class="cls-8" x="335.5" y="110" width="3" height="3"/><rect class="cls-8" x="329.5" y="110" width="3" height="3"/><line class="cls-7" x1="417" y1="21.5" x2="378" y2="21.5"/><rect class="cls-8" x="378" y="0.5" width="62.5" height="17"/><rect class="cls-8" x="437.5" y="20" width="3" height="3"/><rect class="cls-8" x="431.5" y="20" width="3" height="3"/><rect class="cls-8" x="425.5" y="20" width="3" height="3"/><rect class="cls-8" x="419.5" y="20" width="3" height="3"/><line class="cls-7" x1="417" y1="51.5" x2="378" y2="51.5"/><rect class="cls-8" x="378" y="30.5" width="62.5" height="17"/><rect class="cls-8" x="437.5" y="50" width="3" height="3"/><rect class="cls-8" x="431.5" y="50" width="3" height="3"/><rect class="cls-8" x="425.5" y="50" width="3" height="3"/><rect class="cls-8" x="419.5" y="50" width="3" height="3"/><line class="cls-7" x1="417" y1="81.5" x2="378" y2="81.5"/><rect class="cls-8" x="378" y="60.5" width="62.5" height="17"/><rect class="cls-8" x="437.5" y="80" width="3" height="3"/><rect class="cls-8" x="431.5" y="80" width="3" height="3"/><rect class="cls-8" x="425.5" y="80" width="3" height="3"/><rect class="cls-8" x="419.5" y="80" width="3" height="3"/><line class="cls-7" x1="417" y1="111.5" x2="378" y2="111.5"/><rect class="cls-8" x="378" y="90.5" width="62.5" height="17"/><rect class="cls-8" x="437.5" y="110" width="3" height="3"/><rect class="cls-8" x="431.5" y="110" width="3" height="3"/><rect class="cls-8" x="425.5" y="110" width="3" height="3"/><rect class="cls-8" x="419.5" y="110" width="3" height="3"/><line class="cls-7" x1="487" y1="21.5" x2="448" y2="21.5"/><rect class="cls-8" x="448" y="0.5" width="62.5" height="17"/><rect class="cls-8" x="507.5" y="20" width="3" height="3"/><rect class="cls-8" x="501.5" y="20" width="3" height="3"/><rect class="cls-8" x="495.5" y="20" width="3" height="3"/><rect class="cls-8" x="489.5" y="20" width="3" height="3"/><line class="cls-7" x1="487" y1="51.5" x2="448" y2="51.5"/><rect class="cls-8" x="448" y="30.5" width="62.5" height="17"/><rect class="cls-8" x="507.5" y="50" width="3" height="3"/><rect class="cls-8" x="501.5" y="50" width="3" height="3"/><rect class="cls-8" x="495.5" y="50" width="3" height="3"/><rect class="cls-8" x="489.5" y="50" width="3" height="3"/><line class="cls-7" x1="487" y1="81.5" x2="448" y2="81.5"/><rect class="cls-8" x="448" y="60.5" width="62.5" height="17"/><rect class="cls-8" x="507.5" y="80" width="3" height="3"/><rect class="cls-8" x="501.5" y="80" width="3" height="3"/><rect class="cls-8" x="495.5" y="80" width="3" height="3"/><rect class="cls-8" x="489.5" y="80" width="3" height="3"/><line class="cls-7" x1="487" y1="111.5" x2="448" y2="111.5"/><rect class="cls-8" x="448" y="90.5" width="62.5" height="17"/><rect class="cls-8" x="507.5" y="110" width="3" height="3"/><rect class="cls-8" x="501.5" y="110" width="3" height="3"/><rect class="cls-8" x="495.5" y="110" width="3" height="3"/><rect class="cls-8" x="489.5" y="110" width="3" height="3"/><line class="cls-7" x1="577" y1="21.5" x2="538" y2="21.5"/><rect class="cls-8" x="538" y="0.5" width="62.5" height="17"/><rect class="cls-8" x="597.5" y="20" width="3" height="3"/><rect class="cls-8" x="591.5" y="20" width="3" height="3"/><rect class="cls-8" x="585.5" y="20" width="3" height="3"/><rect class="cls-8" x="579.5" y="20" width="3" height="3"/><line class="cls-7" x1="577" y1="51.5" x2="538" y2="51.5"/><rect class="cls-8" x="538" y="30.5" width="62.5" height="17"/><rect class="cls-8" x="597.5" y="50" width="3" height="3"/><rect class="cls-8" x="591.5" y="50" width="3" height="3"/><rect class="cls-8" x="585.5" y="50" width="3" height="3"/><rect class="cls-8" x="579.5" y="50" width="3" height="3"/><line class="cls-7" x1="577" y1="81.5" x2="538" y2="81.5"/><rect class="cls-8" x="538" y="60.5" width="62.5" height="17"/><rect class="cls-8" x="597.5" y="80" width="3" height="3"/><rect class="cls-8" x="591.5" y="80" width="3" height="3"/><rect class="cls-8" x="585.5" y="80" width="3" height="3"/><rect class="cls-8" x="579.5" y="80" width="3" height="3"/><line class="cls-7" x1="577" y1="111.5" x2="538" y2="111.5"/><rect class="cls-8" x="538" y="90.5" width="62.5" height="17"/><rect class="cls-8" x="597.5" y="110" width="3" height="3"/><rect class="cls-8" x="591.5" y="110" width="3" height="3"/><rect class="cls-8" x="585.5" y="110" width="3" height="3"/><rect class="cls-8" x="579.5" y="110" width="3" height="3"/><line class="cls-7" x1="647" y1="21.5" x2="608" y2="21.5"/><rect class="cls-8" x="608" y="0.5" width="62.5" height="17"/><rect class="cls-8" x="667.5" y="20" width="3" height="3"/><rect class="cls-8" x="661.5" y="20" width="3" height="3"/><rect class="cls-8" x="655.5" y="20" width="3" height="3"/><rect class="cls-8" x="649.5" y="20" width="3" height="3"/><line class="cls-7" x1="647" y1="51.5" x2="608" y2="51.5"/><rect class="cls-8" x="608" y="30.5" width="62.5" height="17"/><rect class="cls-8" x="667.5" y="50" width="3" height="3"/><rect class="cls-8" x="661.5" y="50" width="3" height="3"/><rect class="cls-8" x="655.5" y="50" width="3" height="3"/><rect class="cls-8" x="649.5" y="50" width="3" height="3"/><line class="cls-7" x1="647" y1="81.5" x2="608" y2="81.5"/><rect class="cls-8" x="608" y="60.5" width="62.5" height="17"/><rect class="cls-8" x="667.5" y="80" width="3" height="3"/><rect class="cls-8" x="661.5" y="80" width="3" height="3"/><rect class="cls-8" x="655.5" y="80" width="3" height="3"/><rect class="cls-8" x="649.5" y="80" width="3" height="3"/><line class="cls-7" x1="647" y1="111.5" x2="608" y2="111.5"/><rect class="cls-8" x="608" y="90.5" width="62.5" height="17"/><rect class="cls-8" x="667.5" y="110" width="3" height="3"/><rect class="cls-8" x="661.5" y="110" width="3" height="3"/><rect class="cls-8" x="655.5" y="110" width="3" height="3"/><rect class="cls-8" x="649.5" y="110" width="3" height="3"/><rect class="cls-9" width="671" height="113.5"/></g></g></svg>