<svg xmlns="http://www.w3.org/2000/svg" viewBox="0 0 650 700"><defs><style>.cls-1{fill:#bfbfbf;}.cls-2{fill:none;}</style></defs><g id="Layer_2" data-name="Layer 2"><g id="Layer_2-2" data-name="Layer 2"><polygon class="cls-1" points="396.96 414.81 358.43 481.54 312.45 481.54 332.55 446.72 350.97 414.81 396.96 414.81"/><polygon class="cls-1" points="426.55 481.54 388.02 548.27 378.02 548.27 416.55 481.54 426.55 481.54"/><polygon class="cls-1" points="318.48 446.72 298.38 481.54 284.37 481.54 304.47 446.72 318.48 446.72"/><polygon class="cls-1" points="330.21 281.18 407.27 281.18 430.26 321 390.06 321 353.21 321.01 330.21 281.18"/><polygon class="cls-1" points="373.21 222.19 450.26 222.19 455.26 230.85 378.21 230.85 373.21 222.19"/><polygon class="cls-1" points="397.09 333.19 437.3 333.19 444.3 345.32 404.1 345.32 397.09 333.19"/><polygon class="cls-1" points="247.87 405.8 209.35 339.07 232.34 299.25 252.44 334.06 270.87 365.97 247.87 405.8"/><polygon class="cls-1" points="175.29 398.06 136.76 331.33 141.76 322.67 180.29 389.4 175.29 398.06"/><polygon class="cls-1" points="259.48 321.88 239.37 287.06 246.38 274.93 266.48 309.75 259.48 321.88"/><rect class="cls-2" width="650" height="700"/></g></g></svg>