<svg xmlns="http://www.w3.org/2000/svg" viewBox="0 0 650 700"><defs><style>.cls-1{fill:#bfbfbf;}.cls-2{fill:none;}</style></defs><g id="Layer_2" data-name="Layer 2"><g id="Layer_2-2" data-name="Layer 2"><polygon class="cls-1" points="435.07 414.81 396.55 481.54 358.43 481.54 396.96 414.81 435.07 414.81"/><polygon class="cls-1" points="416.55 481.54 378.02 548.27 368.02 548.27 406.55 481.54 416.55 481.54"/><polygon class="cls-1" points="311.16 248.17 388.21 248.17 407.27 281.18 330.21 281.18 311.16 248.17"/><polygon class="cls-1" points="378.21 230.85 455.26 230.85 460.26 239.51 383.21 239.51 378.21 230.85"/><polygon class="cls-1" points="228.82 438.81 190.29 372.08 209.35 339.07 247.87 405.8 228.82 438.81"/><polygon class="cls-1" points="180.29 389.4 141.76 322.67 146.76 314.01 185.29 380.74 180.29 389.4"/><rect class="cls-2" width="650" height="700"/></g></g></svg>