<svg xmlns="http://www.w3.org/2000/svg" viewBox="0 0 650 700"><defs><style>.cls-1{fill:#bfbfbf;}.cls-2{fill:none;}</style></defs><g id="Layer_2" data-name="Layer 2"><g id="Layer_2-2" data-name="Layer 2"><polygon class="cls-1" points="312.45 481.54 273.92 548.27 245.84 548.27 284.37 481.54 312.45 481.54"/><polygon class="cls-1" points="396.55 481.54 358.02 548.27 319.91 548.27 358.43 481.54 396.55 481.54"/><polygon class="cls-1" points="475.07 414.81 436.55 481.54 426.55 481.54 465.07 414.81 475.07 414.81"/><polygon class="cls-1" points="430.26 321 507.31 321 521.36 345.32 444.3 345.32 430.26 321"/><polygon class="cls-1" points="388.21 248.17 465.26 248.17 484.32 281.18 407.27 281.18 388.21 248.17"/><polygon class="cls-1" points="291.16 213.53 368.21 213.53 373.21 222.19 296.16 222.19 291.16 213.53"/><polygon class="cls-1" points="232.34 299.25 193.81 232.51 207.85 208.2 246.38 274.93 232.34 299.25"/><polygon class="cls-1" points="190.29 372.08 151.76 305.35 170.82 272.34 209.35 339.07 190.29 372.08"/><polygon class="cls-1" points="208.82 473.45 170.29 406.72 175.29 398.06 213.82 464.79 208.82 473.45"/><rect class="cls-2" width="650" height="700"/></g></g></svg>