<svg xmlns="http://www.w3.org/2000/svg" viewBox="0 0 119.95 41.34">
    <defs>
        <style>.nudge-logo{fill:#4D4D4D;}</style>
    </defs>
    <g id="Layer_2" data-name="Layer 2">
        <g id="Layer_1-2" data-name="Layer 1">
            <circle class="nudge-logo" cx="2.34" cy="13.09" r="2.34"/>
            <circle class="nudge-logo" cx="7.58" cy="13.09" r="2.34"/>
            <circle class="nudge-logo" cx="12.81" cy="13.09" r="2.34"/>
            <circle class="nudge-logo" cx="2.34" cy="18.33" r="2.34"/>
            <circle class="nudge-logo" cx="2.34" cy="23.57" r="2.34"/>
            <circle class="nudge-logo" cx="2.34" cy="28.8" r="2.34"/>
            <circle class="nudge-logo" cx="42.44" cy="13.09" r="2.34"/>
            <circle class="nudge-logo" cx="42.44" cy="18.33" r="2.34"/>
            <circle class="nudge-logo" cx="42.44" cy="23.57" r="2.34"/>
            <circle class="nudge-logo" cx="42.44" cy="28.8" r="2.34"/>
            <circle class="nudge-logo" cx="27.73" cy="13.09" r="2.34"/>
            <circle class="nudge-logo" cx="27.73" cy="18.33" r="2.34"/>
            <circle class="nudge-logo" cx="27.73" cy="23.57" r="2.34"/>
            <circle class="nudge-logo" cx="31.97" cy="28.8" r="2.34"/>
            <circle class="nudge-logo" cx="37.2" cy="28.8" r="2.34"/>
            <circle class="nudge-logo" cx="66.83" cy="12.81" r="2.34"/>
            <circle class="nudge-logo" cx="66.83" cy="18.05" r="2.34"/>
            <circle class="nudge-logo" cx="66.83" cy="23.29" r="2.34"/>
            <circle class="nudge-logo" cx="66.83" cy="2.34" r="2.34"/>
            <circle class="nudge-logo" cx="66.83" cy="7.58" r="2.34"/>
            <circle class="nudge-logo" cx="52.12" cy="18.05" r="2.34"/>
            <circle class="nudge-logo" cx="52.12" cy="23.29" r="2.34"/>
            <circle class="nudge-logo" cx="56.36" cy="28.52" r="2.34"/>
            <circle class="nudge-logo" cx="61.59" cy="28.52" r="2.34"/>
            <circle class="nudge-logo" cx="56.36" cy="12.81" r="2.34"/>
            <circle class="nudge-logo" cx="61.59" cy="12.81" r="2.34"/>
            <circle class="nudge-logo" cx="92.22" cy="28.52" r="2.34"/>
            <circle class="nudge-logo" cx="92.22" cy="18.05" r="2.34"/>
            <circle class="nudge-logo" cx="92.22" cy="23.29" r="2.34"/>
            <circle class="nudge-logo" cx="92.22" cy="33.76" r="2.34"/>
            <circle class="nudge-logo" cx="76.51" cy="18.05" r="2.34"/>
            <circle class="nudge-logo" cx="76.51" cy="23.29" r="2.34"/>
            <circle class="nudge-logo" cx="81.74" cy="28.52" r="2.34"/>
            <circle class="nudge-logo" cx="81.74" cy="39" r="2.34"/>
            <circle class="nudge-logo" cx="86.98" cy="28.52" r="2.34"/>
            <circle class="nudge-logo" cx="86.98" cy="39" r="2.34"/>
            <circle class="nudge-logo" cx="81.74" cy="12.81" r="2.34"/>
            <circle class="nudge-logo" cx="86.98" cy="12.81" r="2.34"/>
            <circle class="nudge-logo" cx="117.61" cy="18.05" r="2.34"/>
            <circle class="nudge-logo" cx="101.9" cy="18.05" r="2.34"/>
            <circle class="nudge-logo" cx="101.9" cy="23.29" r="2.34"/>
            <circle class="nudge-logo" cx="107.13" cy="28.52" r="2.34"/>
            <circle class="nudge-logo" cx="112.37" cy="28.52" r="2.34"/>
            <circle class="nudge-logo" cx="107.13" cy="18.05" r="2.34"/>
            <circle class="nudge-logo" cx="112.37" cy="18.05" r="2.34"/>
            <circle class="nudge-logo" cx="107.13" cy="12.81" r="2.34"/>
            <circle class="nudge-logo" cx="112.37" cy="12.81" r="2.34"/>
            <circle class="nudge-logo" cx="18.05" cy="18.33" r="2.34"/>
            <circle class="nudge-logo" cx="18.05" cy="23.57" r="2.34"/>
            <circle class="nudge-logo" cx="18.05" cy="28.8" r="2.34"/>
        </g>
    </g>
</svg>