<svg xmlns="http://www.w3.org/2000/svg" viewBox="0 0 26.42 34.5">
    <defs>
        <style>.cls-1{fill:#fff;}</style>
    </defs>
    <g id="Layer_2" data-name="Layer 2">
        <g id="Layer_1-2" data-name="Layer 1">
            <path class="cls-1" d="M24.38,10.05c-.73-.36-2.76-2.79-3.86-4.1-1.81-2.16-2.79-3.31-3.73-3.78A24.53,24.53,0,0,0,12.14.83C11.29.64,10.48.46,10,.31A8.44,8.44,0,0,0,6.36.1,16.79,16.79,0,0,1,4.62.22a2,2,0,0,0,0,4h0a20.45,20.45,0,0,0,2.07-.14,4.72,4.72,0,0,1,2.07.06c.64.19,1.51.38,2.43.59l1.51.35a2.58,2.58,0,0,0-1,.52c-1.14.94-1.76,2.67-2.55,4.87a4.21,4.21,0,0,0-.09,2.92l-.05-.06a18.92,18.92,0,0,1-1.89-2.58A25,25,0,0,0,3.39,6,2,2,0,0,0,.61,8.89,21,21,0,0,1,3.7,12.7,21.16,21.16,0,0,0,6,15.86,25.23,25.23,0,0,1,8.35,19.1a31.35,31.35,0,0,1,2.12,6.5c.38,1.48.74,2.88,1.13,4a7.51,7.51,0,0,0,4.6,4.48,7.29,7.29,0,0,0,2.45.44A6.45,6.45,0,0,0,22,33.6c3-1.83,3.39-6.84,3.51-11.81,0-.46,0-.86,0-1.18a21.05,21.05,0,0,1,.38-2.42C26.47,15.18,27.19,11.42,24.38,10.05Z"/>
        </g>
    </g>
</svg>