<svg xmlns="http://www.w3.org/2000/svg" viewBox="0 0 37.28 31.8">
    <defs>
        <style>.cls-1{fill:#fff;}.cls-2{fill:none;}</style>
    </defs>
    <g id="Layer_2" data-name="Layer 2">
        <g id="Layer_1-2" data-name="Layer 1">
            <path class="cls-1" d="M35.28,10.3H18.2l-1.5-.19L15.84,10c4.08-1.22,5.27-2.65,5.6-3.26A2,2,0,0,0,18,4.61c-.15.14-1.2,1-4.69,1.88-4.65,1.12-7,1.9-9.19,4.34A9,9,0,0,0,0,18.55c0,5.51,4.42,9.5,10.5,9.5h4.21a5.51,5.51,0,0,0,3.77-1.86,3.27,3.27,0,0,0,.61-1.54,5.86,5.86,0,0,0,1-5.18,5.23,5.23,0,0,0,.23-5.17h15a2,2,0,0,0,0-4Z"/>
            <rect class="cls-2" width="37.28" height="31.8"/>
        </g>
    </g>
</svg>