<svg xmlns="http://www.w3.org/2000/svg" viewBox="0 0 23.57 34.66">
    <defs>
        <style>.cls-1{fill:#fff;}</style>
    </defs>
    <g id="Layer_2" data-name="Layer 2">
        <g id="Layer_1-2" data-name="Layer 1">
            <path class="cls-1" d="M23.35,25a31.46,31.46,0,0,1-.62-4.13C22.41,18,22.09,15,20.79,13c-1.63-2.48-4.65-7.69-5.3-9.12C14.62,2,12,1,8.27.24L7.88.16A6.51,6.51,0,0,0,5.67,0c-.47,0-1.06.07-2,.07a2,2,0,0,0,0,4h.41A13,13,0,0,0,2.32,5.59c-.35.34-.73.7-1.17,1.08a2,2,0,1,0,2.61,3c.5-.43.93-.84,1.33-1.22a9.48,9.48,0,0,1,1.3-1.14A10.84,10.84,0,0,1,9,7.74,16.91,16.91,0,0,0,7.27,8l-.46.09a6.35,6.35,0,0,0-3.34,2c-.21.2-.43.41-.68.63a2,2,0,1,0,2.65,3L6.2,13a4.87,4.87,0,0,1,1.22-1l.65-.12a7.51,7.51,0,0,1,2.2-.23c0,.06.07.13.1.2a6.54,6.54,0,0,0-.81,0c-1.68.13-2.73,1.36-3.74,2.54L5.4,15a2,2,0,1,0,3,2.63l.45-.52A8.52,8.52,0,0,1,10,15.92h.24l0,.08a17.51,17.51,0,0,0,2.7,3.24A6.09,6.09,0,0,1,10.8,22.5c-.24.14-1,.55-2.51-.16a21.86,21.86,0,0,1-3.85-3.9l-.69-1.26a2,2,0,1,0-3.5,1.93l.69,1.26a22.37,22.37,0,0,0,4.52,4.81,2,2,0,0,0,.64.55h0l.88.7a4.27,4.27,0,0,1,.93,1.48,11.28,11.28,0,0,0,5.61,5.9,7.12,7.12,0,0,0,3.26.84,5.92,5.92,0,0,0,3.75-1.34A8.53,8.53,0,0,0,23.35,25Z"/>
        </g>
    </g>
</svg>