<svg xmlns="http://www.w3.org/2000/svg" viewBox="0 0 28.2 31.8">
    <defs>
        <style>.cls-1{fill:#fff;}</style>
    </defs>
    <g id="Layer_2" data-name="Layer 2">
        <g id="Layer_1-2" data-name="Layer 1">
            <path class="cls-1" d="M24.66,4.81c-1.42,1.43-2.08,3.67-2,6.82l-.16-.16L20.22,9.2,13.32.81a2.07,2.07,0,0,0-2.6-.56,2,2,0,0,0-.55,3l6.09,7.41a.82.82,0,0,1-.06,1.11l-.05.06a.83.83,0,0,1-1.19,0l-9-9.63A2.1,2.1,0,0,0,3,2a2,2,0,0,0,0,2.76l9.71,10.35a.83.83,0,0,1,0,1.15l0,0a.83.83,0,0,1-1.17,0l-8-8A2.06,2.06,0,0,0,.84,8.08a2,2,0,0,0-.26,3l9.15,9.15a.83.83,0,0,1,0,1.17h0a.82.82,0,0,1-1.17,0L4.4,17.27A2.07,2.07,0,0,0,1.77,17a2,2,0,0,0-.25,3l6.22,6.22,2.53,2.53a8.86,8.86,0,0,0,.79.72A10.42,10.42,0,0,0,27.82,19.14a.22.22,0,0,0,0-.08c-2.16-8.66-.9-10.93-.26-11.52a2,2,0,0,0,0-3A2.1,2.1,0,0,0,24.66,4.81Z"/>
        </g>
    </g>
</svg>